<?xml version="1.0" encoding="UTF-8"?>
<svg xmlns="http://www.w3.org/2000/svg" xmlns:xlink="http://www.w3.org/1999/xlink" width="1462px" height="200px" viewBox="0 0 1464 200" version="1.1">
<g id="surface1">
<path style=" stroke:none;fill-rule:nonzero;fill:rgb(0%,37.64706%,68.627453%);fill-opacity:1;" d="M 94.097656 151.933594 C 94.097656 143.957031 94.183594 122.632812 93.988281 120.003906 C 94.160156 88.273438 71.089844 65.890625 56.515625 67.632812 C 46.433594 68.507812 37.980469 72.621094 33.441406 84.453125 C 29.238281 95.476562 32.996094 110.144531 46.980469 113.585938 C 61.933594 117.28125 70.664062 120.355469 76.984375 124.695312 C 84.726562 130.003906 91.046875 140.152344 91.214844 151.945312 "/>
<path style=" stroke:none;fill-rule:nonzero;fill:rgb(0%,37.64706%,68.627453%);fill-opacity:1;" d="M 100.066406 200.167969 C 73.699219 200.167969 46.605469 193.671875 19.546875 180.828125 L 18.882812 180.5 L 18.566406 179.824219 C 6.421875 154.1875 0 126.148438 0 98.71875 C 0 71.324219 6.15625 44.488281 18.308594 18.886719 L 18.644531 18.207031 L 19.320312 17.867188 C 44.351562 6.007812 71.28125 0 99.378906 0 C 125.558594 0 153.511719 6.6875 180.214844 19.375 L 180.898438 19.679688 L 181.214844 20.371094 C 193.589844 46.480469 200.117188 74.511719 200.117188 101.488281 C 200.117188 128.363281 193.851562 155.222656 181.460938 181.316406 L 181.132812 182.003906 L 180.445312 182.320312 C 155.796875 193.988281 128 200.167969 100.066406 200.167969 M 22.050781 177.3125 C 48.335938 189.679688 74.554688 195.925781 100.066406 195.925781 C 127.117188 195.925781 154.019531 190.011719 177.964844 178.800781 C 189.863281 153.515625 195.890625 127.496094 195.890625 101.488281 C 195.890625 75.378906 189.597656 48.214844 177.691406 22.875 C 151.78125 10.695312 124.71875 4.234375 99.378906 4.234375 C 72.175781 4.234375 46.097656 10.003906 21.824219 21.390625 C 10.171875 46.203125 4.238281 72.203125 4.238281 98.71875 C 4.238281 125.28125 10.402344 152.453125 22.050781 177.3125 "/>
<path style=" stroke:none;fill-rule:nonzero;fill:rgb(0%,37.64706%,68.627453%);fill-opacity:1;" d="M 87.847656 151.945312 C 87.898438 141.71875 82.191406 132.675781 74.730469 127.816406 C 68.113281 123.523438 59.230469 120.699219 44.902344 117.066406 C 40.472656 115.933594 35.839844 113.414062 34.40625 110.207031 C 30.609375 114.03125 29.921875 122.628906 30.589844 127.652344 C 31.363281 133.464844 38.15625 143.046875 48.386719 143.421875 C 54.632812 143.671875 62.53125 142.078125 66.316406 141.273438 C 72.851562 139.863281 83.1875 143.957031 84.832031 151.933594 "/>
<path style=" stroke:none;fill-rule:nonzero;fill:rgb(0%,37.64706%,68.627453%);fill-opacity:1;" d="M 99.378906 18.179688 C 82.035156 18.179688 67.054688 29.621094 67.109375 49.414062 C 67.164062 66.058594 80.546875 74.96875 85.324219 81.335938 C 92.542969 90.925781 96.449219 102.277344 96.855469 119.648438 C 97.167969 133.472656 97.152344 147.125 97.222656 151.960938 L 101.054688 151.960938 C 100.984375 146.898438 100.8125 132.40625 101.011719 119.21875 C 101.269531 101.84375 105.316406 90.925781 112.539062 81.335938 C 117.355469 74.96875 130.730469 66.058594 130.757812 49.414062 C 130.824219 29.621094 115.851562 18.179688 98.523438 18.179688 "/>
<path style=" stroke:none;fill-rule:nonzero;fill:rgb(0%,37.64706%,68.627453%);fill-opacity:1;" d="M 103.78125 151.933594 C 103.78125 143.957031 103.691406 122.632812 103.886719 120.003906 C 103.714844 88.273438 126.769531 65.890625 141.355469 67.632812 C 151.441406 68.507812 159.882812 72.621094 164.433594 84.453125 C 168.636719 95.476562 164.851562 110.144531 150.886719 113.585938 C 135.925781 117.28125 127.207031 120.355469 120.871094 124.695312 C 113.136719 130.003906 107.257812 140.152344 107.078125 151.945312 "/>
<path style=" stroke:none;fill-rule:nonzero;fill:rgb(0%,37.64706%,68.627453%);fill-opacity:1;" d="M 110.027344 151.945312 C 109.972656 141.71875 115.679688 132.675781 123.117188 127.816406 C 129.757812 123.523438 138.652344 120.699219 152.96875 117.066406 C 157.410156 115.933594 162.035156 113.414062 163.445312 110.207031 C 167.257812 114.03125 167.945312 122.628906 167.277344 127.652344 C 166.488281 133.464844 159.710938 143.046875 149.5 143.421875 C 143.253906 143.671875 135.316406 142.078125 131.546875 141.273438 C 125.039062 139.863281 114.671875 143.957031 113.019531 151.933594 "/>
<path style=" stroke:none;fill-rule:nonzero;fill:rgb(0%,37.64706%,68.627453%);fill-opacity:1;" d="M 115.378906 184.960938 L 113.15625 168.765625 L 118.515625 167.953125 C 119.820312 167.773438 121.40625 168 122.042969 168.816406 C 122.746094 169.671875 122.960938 170.378906 123.09375 171.496094 C 123.296875 172.878906 122.894531 174.480469 121.335938 175.277344 L 121.335938 175.328125 C 123.078125 175.328125 124.128906 176.578125 124.433594 178.6875 C 124.480469 179.132812 124.613281 180.210938 124.480469 181.109375 C 124.125 183.25 122.851562 183.9375 120.699219 184.238281 Z M 118.824219 182.058594 C 119.460938 181.96875 120.105469 181.933594 120.609375 181.613281 C 121.378906 181.109375 121.308594 180.035156 121.203125 179.234375 C 120.933594 177.476562 120.472656 176.808594 118.609375 177.085938 L 117.441406 177.265625 L 118.179688 182.148438 Z M 117.703125 174.578125 C 118.414062 174.460938 119.375 174.375 119.773438 173.703125 C 119.984375 173.253906 120.253906 172.894531 120.074219 171.898438 C 119.855469 170.710938 119.464844 169.976562 117.960938 170.261719 L 116.558594 170.488281 L 117.109375 174.636719 "/>
<path style=" stroke:none;fill-rule:nonzero;fill:rgb(0%,37.64706%,68.627453%);fill-opacity:1;" d="M 138.582031 175.21875 C 138.625 175.519531 138.671875 175.855469 138.691406 176.15625 C 139.125 179.109375 138.582031 181.554688 135.261719 182.230469 C 130.355469 183.175781 129.414062 180.125 128.550781 175.855469 L 128.089844 173.546875 C 127.414062 169.460938 127.125 166.367188 131.910156 165.414062 C 134.605469 164.921875 136.386719 165.996094 137.128906 168.679688 C 137.246094 169.082031 137.390625 169.480469 137.445312 169.882812 L 134.507812 170.488281 C 134.167969 169.480469 133.71875 167.675781 132.398438 167.828125 C 130.027344 168.113281 130.8125 171.0625 131.054688 172.296875 L 131.9375 176.730469 C 132.203125 178.070312 132.730469 180.210938 134.78125 179.796875 C 136.445312 179.464844 135.722656 176.871094 135.574219 175.808594 "/>
<path style=" stroke:none;fill-rule:nonzero;fill:rgb(0%,37.64706%,68.627453%);fill-opacity:1;" d="M 143.292969 180.121094 L 142.277344 163.359375 L 146.222656 162.15625 L 154.492188 176.734375 L 151.386719 177.660156 L 149.425781 173.957031 L 145.976562 174.992188 L 146.425781 179.203125 Z M 145.691406 172.285156 L 148.179688 171.566406 L 144.871094 164.78125 "/>
<path style=" stroke:none;fill-rule:nonzero;fill:rgb(0%,37.64706%,68.627453%);fill-opacity:1;" d="M 45.875 167.449219 C 47.109375 163.496094 48.214844 160.585938 52.925781 161.878906 C 55.445312 162.582031 57.007812 163.695312 56.933594 166.625 C 56.921875 167.273438 56.707031 167.9375 56.566406 168.582031 L 53.632812 167.773438 C 54.019531 166.15625 54.261719 164.875 52.269531 164.261719 C 49.96875 163.628906 49.40625 166.417969 49.089844 167.625 L 47.894531 172.019531 C 47.515625 173.324219 47.0625 175.480469 49.089844 176.035156 C 50.761719 176.488281 51.777344 174.84375 52.386719 172.441406 L 50.332031 171.898438 L 51.042969 169.359375 L 55.867188 170.910156 L 53.574219 179.378906 L 51.355469 178.777344 L 51.855469 176.984375 L 51.792969 176.984375 C 50.773438 178.449219 49.523438 178.601562 48.433594 178.394531 C 43.609375 177.089844 44.113281 173.9375 45.265625 169.722656 "/>
<path style=" stroke:none;fill-rule:nonzero;fill:rgb(0%,37.64706%,68.627453%);fill-opacity:1;" d="M 63.824219 174.601562 L 62.375 181.492188 L 59.105469 180.785156 L 62.589844 164.695312 L 68.160156 165.957031 C 71.425781 166.660156 72.410156 168.113281 71.949219 171.101562 C 71.683594 172.820312 70.835938 174.667969 68.773438 174.519531 L 68.75 174.492188 C 70.496094 175.101562 70.644531 175.984375 70.339844 177.507812 C 70.207031 178.152344 69.300781 182.085938 69.925781 182.722656 L 69.949219 183.203125 L 66.566406 182.320312 C 66.425781 181.230469 66.902344 179.269531 67.09375 178.1875 C 67.28125 177.226562 67.589844 175.871094 66.613281 175.363281 C 65.851562 174.957031 65.566406 174.976562 64.703125 174.777344 Z M 64.382812 172.109375 L 66.585938 172.703125 C 67.921875 172.894531 68.664062 172.203125 68.929688 170.589844 C 69.167969 169.105469 68.859375 168.527344 67.660156 168.242188 L 65.296875 167.761719 "/>
<path style=" stroke:none;fill-rule:nonzero;fill:rgb(0%,37.64706%,68.627453%);fill-opacity:1;" d="M 84.796875 168.292969 L 88.027344 168.667969 L 86.636719 179.976562 C 85.960938 183.5625 84.574219 185.128906 80.628906 184.636719 C 76.617188 184.132812 75.664062 182.304688 75.90625 178.6875 L 77.308594 167.390625 L 80.566406 167.761719 L 79.171875 178.808594 C 79.023438 180.011719 78.742188 181.789062 80.878906 182.003906 C 82.769531 182.144531 83.199219 180.890625 83.414062 179.332031 "/>
<path style=" stroke:none;fill-rule:nonzero;fill:rgb(0%,37.64706%,68.627453%);fill-opacity:1;" d="M 91.59375 185.257812 L 92.566406 169.085938 L 98.78125 169.355469 C 101.714844 169.5 102.484375 171.898438 102.390625 174.183594 C 102.308594 175.574219 101.871094 177.128906 100.660156 177.972656 C 99.664062 178.6875 98.386719 178.859375 97.203125 178.800781 L 95.179688 178.6875 L 94.773438 185.464844 Z M 95.269531 176.222656 L 96.914062 176.3125 C 98.253906 176.363281 99.136719 175.835938 99.253906 173.871094 C 99.320312 171.984375 98.605469 171.664062 96.875 171.589844 L 95.570312 171.546875 "/>
<path style=" stroke:none;fill-rule:nonzero;fill:rgb(0%,37.64706%,68.627453%);fill-opacity:1;" d="M 529.742188 33.8125 L 505.050781 78.628906 C 495.730469 71.0625 484.351562 65.492188 469.832031 65.492188 C 435.472656 65.492188 421.515625 91.109375 421.515625 109.152344 C 421.515625 122.542969 430.285156 142.304688 460.859375 142.304688 C 473.691406 142.304688 491.933594 133.378906 497.183594 129.316406 L 472.765625 181.3125 C 461.125 183.636719 457.300781 185.074219 447.449219 185.378906 C 392.726562 187.011719 370.617188 153.394531 370.632812 119.042969 C 370.667969 73.628906 411.039062 18.398438 477.964844 18.398438 C 482.066406 18.398438 487.082031 19.816406 491.371094 21.390625 L 495.707031 15.84375 "/>
<path style=" stroke:none;fill-rule:nonzero;fill:rgb(0%,37.64706%,68.627453%);fill-opacity:1;" d="M 631.617188 17.25 L 638.609375 180.152344 L 586.578125 180.152344 L 586.546875 152.210938 L 551.066406 152.210938 L 539.390625 180.152344 L 482.957031 180.152344 L 541.953125 63.828125 L 528.652344 63.738281 L 553.929688 17.25 Z M 586.210938 67.085938 L 566.148438 114.46875 L 586.8125 114.46875 "/>
<path style=" stroke:none;fill-rule:nonzero;fill:rgb(0%,37.64706%,68.627453%);fill-opacity:1;" d="M 337.78125 17.25 C 363.550781 17.394531 378.113281 31.382812 378.113281 51.589844 C 378.113281 70.21875 362.753906 86.710938 345.898438 95.234375 C 363.253906 101.617188 364.753906 117.28125 364.753906 128.363281 C 364.753906 155.132812 337.894531 180.152344 302.976562 180.152344 L 226.832031 180.152344 L 256.535156 65.445312 L 244.332031 65.375 L 269.273438 17.25 C 269.273438 17.25 316.828125 17.105469 337.78125 17.25 M 312.503906 83.296875 C 317.832031 83.296875 327.242188 81.949219 329.597656 71.632812 C 332.175781 60.433594 323.34375 60.128906 319.105469 60.128906 L 303.96875 60.066406 L 298.6875 83.296875 Z M 291.101562 112.082031 L 284.128906 138.855469 L 301.953125 138.855469 C 308.96875 138.855469 318.527344 135.375 320.867188 126.664062 C 323.179688 117.925781 316.5 112.082031 309.511719 112.082031 "/>
<path style=" stroke:none;fill-rule:nonzero;fill:rgb(0%,65.098041%,70.980394%);fill-opacity:1;" d="M 1054.550781 178.765625 C 1054.640625 178.460938 1059.308594 152.351562 1064.921875 120.75 C 1070.53125 89.148438 1075.199219 62.96875 1075.289062 62.574219 L 1075.449219 61.855469 L 1116.550781 61.855469 L 1116.371094 62.734375 C 1116.058594 64.242188 1113.316406 80.898438 1113.316406 81.269531 C 1113.316406 81.464844 1114.792969 80.292969 1116.597656 78.664062 C 1127.597656 68.738281 1138.898438 62.546875 1149.261719 60.777344 C 1155.742188 59.671875 1164.777344 60.324219 1170.824219 62.335938 C 1179.230469 65.136719 1184.320312 69.214844 1187.496094 75.695312 C 1191.453125 83.773438 1191.867188 92.285156 1189.070312 108.015625 C 1188.109375 113.421875 1176.65625 179.121094 1176.65625 179.226562 C 1176.65625 179.28125 1166.628906 179.324219 1154.371094 179.324219 L 1132.082031 179.324219 L 1132.25 178.605469 C 1132.449219 177.765625 1140.589844 134.734375 1141.785156 128.230469 C 1143.238281 120.300781 1144.507812 110.792969 1144.503906 107.855469 C 1144.5 103.402344 1143.296875 99.898438 1141.25 98.359375 C 1139.695312 97.195312 1137.105469 95.972656 1135.058594 95.4375 C 1129.957031 94.109375 1123.046875 95.816406 1118.972656 99.410156 C 1115.847656 102.164062 1112.363281 108.515625 1110.632812 114.597656 C 1110.046875 116.660156 1098.355469 178.140625 1098.355469 179.164062 C 1098.355469 179.25 1088.464844 179.324219 1076.371094 179.324219 C 1055.585938 179.324219 1054.398438 179.292969 1054.550781 178.765625 Z M 1054.550781 178.765625 "/>
<path style=" stroke:none;fill-rule:nonzero;fill:rgb(0%,65.098041%,70.980394%);fill-opacity:1;" d="M 784.523438 179.242188 C 784.527344 179.199219 789.230469 152.804688 794.96875 120.589844 L 805.40625 62.015625 L 826.015625 61.933594 C 845.546875 61.855469 846.617188 61.882812 846.46875 62.414062 C 846.027344 63.964844 843.363281 81.027344 843.535156 81.199219 C 843.644531 81.308594 844.480469 80.671875 845.398438 79.78125 C 850.695312 74.632812 858.535156 69.007812 864.988281 65.722656 C 872.515625 61.886719 878.90625 60.265625 886.464844 60.265625 C 902.417969 60.273438 913.980469 66.492188 918.40625 77.449219 C 921.449219 84.980469 921.664062 93.417969 919.175781 107.539062 C 916.105469 124.984375 906.742188 178.820312 906.742188 179.042969 C 906.742188 179.203125 897.144531 179.324219 884.433594 179.324219 L 862.128906 179.324219 L 862.3125 178.449219 C 863.164062 174.355469 871.632812 129.21875 872.359375 124.886719 C 874.101562 114.53125 874.671875 109.636719 874.507812 106.582031 C 874.226562 101.46875 872.6875 98.804688 868.90625 96.894531 C 865.90625 95.382812 863.410156 94.863281 860.109375 95.074219 C 852.226562 95.578125 847.085938 99.519531 843.0625 108.148438 C 840.820312 112.960938 840.03125 116.5 834.179688 147.878906 C 831.023438 164.8125 828.441406 178.816406 828.441406 178.996094 C 828.441406 179.21875 821.28125 179.324219 806.476562 179.324219 C 794.398438 179.324219 784.519531 179.289062 784.523438 179.242188 Z M 784.523438 179.242188 "/>
<path style=" stroke:none;fill-rule:nonzero;fill:rgb(0%,65.098041%,70.980394%);fill-opacity:1;" d="M 726.652344 178.765625 C 726.730469 178.460938 731.292969 152.171875 736.789062 120.351562 L 746.785156 62.492188 L 789.65625 62.492188 L 789.476562 63.371094 C 789.375 63.851562 784.921875 89.742188 779.574219 120.910156 C 774.230469 152.074219 769.777344 177.964844 769.679688 178.449219 L 769.503906 179.324219 L 748.007812 179.324219 C 727.691406 179.324219 726.519531 179.292969 726.652344 178.765625 Z M 726.652344 178.765625 "/>
<path style=" stroke:none;fill-rule:nonzero;fill:rgb(0%,65.098041%,70.980394%);fill-opacity:1;" d="M 656.078125 178.925781 C 656.171875 178.53125 659.398438 160.015625 663.25 137.78125 C 667.101562 115.542969 670.335938 96.957031 670.433594 96.476562 L 670.613281 95.601562 L 653.960938 95.601562 L 654.144531 94.726562 C 654.242188 94.242188 655.476562 87.117188 656.882812 78.886719 C 658.289062 70.660156 659.519531 63.53125 659.617188 63.050781 L 659.792969 62.175781 L 676.597656 62.175781 L 676.753906 61.460938 C 676.835938 61.066406 677.066406 59.882812 677.261719 58.832031 C 679.777344 45.285156 685.242188 33.125 691.707031 26.667969 C 696.960938 21.421875 705.363281 17.738281 715.761719 16.121094 C 720.800781 15.339844 734.351562 15.332031 740.878906 16.109375 C 746.75 16.808594 753.757812 17.925781 754.273438 18.242188 C 754.574219 18.429688 753.5625 21.816406 750.226562 31.816406 L 745.78125 45.144531 L 741.035156 45.039062 C 732.4375 44.847656 728.921875 45.734375 725.945312 48.839844 C 723.457031 51.433594 722.582031 53.746094 721.347656 60.980469 L 721.144531 62.175781 L 731.980469 62.175781 C 741.476562 62.175781 742.816406 62.234375 742.816406 62.660156 C 742.816406 63.070312 737.738281 92.136719 737.214844 94.726562 L 737.039062 95.601562 L 714.964844 95.601562 L 707.222656 137.0625 C 702.964844 159.867188 699.410156 178.773438 699.324219 179.082031 C 699.175781 179.605469 697.867188 179.636719 677.539062 179.636719 L 655.910156 179.636719 L 656.078125 178.921875 Z M 656.078125 178.925781 "/>
<path style=" stroke:none;fill-rule:nonzero;fill:rgb(0%,65.098041%,70.980394%);fill-opacity:1;" d="M 947.816406 181.84375 C 940.28125 181.117188 935.382812 179.304688 929.816406 175.179688 C 925.65625 172.097656 922.867188 168.921875 920.921875 165.046875 C 918.019531 159.269531 917.964844 149.90625 920.785156 141.832031 C 924.589844 130.933594 934.023438 121.972656 946.097656 117.777344 C 951.222656 116 956.972656 114.675781 975.335938 111.054688 C 996.691406 106.847656 1001.539062 105.742188 1005.621094 104.15625 C 1011.207031 101.984375 1012.515625 100.589844 1012.488281 96.808594 C 1012.46875 93.328125 1010.722656 90.652344 1007.34375 88.929688 C 1003.792969 87.117188 996.410156 86.644531 991.308594 87.902344 C 983.628906 89.800781 977.085938 94.25 974.636719 99.242188 C 973.804688 100.945312 973.691406 101.046875 972.789062 100.894531 C 972.265625 100.804688 962.988281 99.691406 952.179688 98.417969 C 934.652344 96.355469 932.523438 96.046875 932.523438 95.554688 C 932.523438 95.25 932.898438 93.957031 933.359375 92.675781 C 936.457031 84.046875 942.683594 76.648438 952.132812 70.367188 C 960.640625 64.707031 968.535156 61.996094 981.25 60.359375 C 986.582031 59.671875 1009.371094 59.582031 1016.234375 60.21875 C 1024.636719 61 1034.75 63.605469 1040.40625 66.441406 C 1045.503906 69 1049.957031 72.878906 1051.773438 76.34375 C 1054.449219 81.449219 1055.914062 88.992188 1055.574219 95.921875 C 1055.171875 104.050781 1054.128906 110.855469 1049.335938 136.507812 C 1045.824219 155.324219 1045.210938 159.261719 1044.980469 164.535156 C 1044.78125 169.015625 1045.265625 172.984375 1046.472656 176.84375 C 1046.820312 177.945312 1047.105469 178.953125 1047.105469 179.085938 C 1047.109375 179.21875 1037.816406 179.324219 1026.457031 179.324219 L 1005.800781 179.324219 L 1005.148438 177.933594 C 1004.335938 176.207031 1003.585938 172.492188 1003.226562 168.410156 C 1003.078125 166.699219 1002.875 165.21875 1002.78125 165.125 C 1002.6875 165.03125 1001.214844 166.125 999.511719 167.558594 C 993.457031 172.648438 988.402344 175.480469 981.042969 177.910156 C 970.640625 181.347656 958.082031 182.832031 947.816406 181.84375 Z M 985.203125 155.695312 C 988.425781 154.546875 992.859375 152.246094 995.109375 150.550781 C 996.183594 149.746094 998.296875 147.785156 999.808594 146.199219 C 1003.035156 142.808594 1004.898438 139.355469 1006.175781 134.398438 C 1006.988281 131.253906 1008.050781 124.875 1007.808594 124.628906 C 1007.679688 124.503906 1002.550781 125.792969 987.746094 129.675781 C 973.378906 133.445312 966.429688 137.425781 964.839844 142.789062 C 964.261719 144.726562 964.203125 148.667969 964.722656 150.402344 C 965.234375 152.109375 966.988281 154.046875 968.894531 155.015625 C 971.492188 156.332031 973.882812 156.71875 978.675781 156.597656 C 982.273438 156.507812 983.335938 156.363281 985.203125 155.695312 Z M 985.203125 155.695312 "/>
<path style=" stroke:none;fill-rule:nonzero;fill:rgb(0%,65.098041%,70.980394%);fill-opacity:1;" d="M 1377.027344 182.167969 C 1367.261719 181.601562 1358.972656 179.4375 1351.421875 175.480469 C 1343.589844 171.375 1336.445312 164.15625 1332.554688 156.421875 C 1330.363281 152.066406 1328.035156 143.792969 1328.757812 142.941406 C 1328.9375 142.730469 1336.179688 137.398438 1344.851562 131.097656 C 1353.523438 124.792969 1360.585938 119.488281 1360.546875 119.308594 C 1360.507812 119.125 1355.390625 114.199219 1349.175781 108.359375 C 1342.960938 102.519531 1337.605469 97.488281 1337.277344 97.179688 C 1336.695312 96.628906 1336.710938 96.566406 1337.894531 94.597656 C 1345.019531 82.753906 1360.265625 70.613281 1374.386719 65.535156 C 1399.480469 56.519531 1425.101562 57.867188 1443.867188 69.195312 C 1456.101562 76.582031 1462.476562 87.847656 1463.773438 104.378906 C 1464.25 110.464844 1463.539062 118.988281 1461.753906 128.550781 L 1461.335938 130.777344 L 1371.773438 130.941406 L 1371.773438 134.136719 C 1371.773438 138.640625 1372.449219 141.628906 1374.328125 145.476562 C 1375.601562 148.082031 1376.269531 149.035156 1377.742188 150.355469 C 1379.984375 152.363281 1383.960938 154.34375 1387.09375 155.011719 C 1393.953125 156.476562 1404.003906 153.679688 1408.839844 148.957031 C 1409.9375 147.886719 1411.050781 146.683594 1411.320312 146.277344 L 1411.808594 145.542969 L 1433.492188 147.105469 C 1445.421875 147.964844 1455.265625 148.757812 1455.375 148.863281 C 1455.480469 148.972656 1454.371094 150.738281 1452.902344 152.792969 C 1440.375 170.316406 1418.523438 181.265625 1394.53125 182.035156 C 1383.816406 182.378906 1381.035156 182.398438 1377.027344 182.167969 Z M 1419.324219 110.378906 C 1419.695312 109.417969 1419.503906 101.800781 1419.058594 99.699219 C 1417.921875 94.332031 1414.472656 90.171875 1409.863281 88.609375 C 1405.191406 87.027344 1399.40625 87.023438 1394.664062 88.597656 C 1386.765625 91.226562 1379.675781 99.386719 1376.761719 109.210938 L 1376.265625 110.882812 L 1397.699219 110.882812 C 1416.949219 110.882812 1419.152344 110.832031 1419.324219 110.378906 Z M 1419.324219 110.378906 "/>
<path style=" stroke:none;fill-rule:nonzero;fill:rgb(0%,65.098041%,70.980394%);fill-opacity:1;" d="M 1245.410156 182.164062 C 1234.359375 181.519531 1223.382812 178.988281 1216.351562 175.464844 C 1209.519531 172.035156 1203.671875 166.550781 1198.773438 158.972656 C 1194.769531 152.785156 1192.582031 145.074219 1192.578125 137.144531 C 1192.578125 117.476562 1197.785156 101.515625 1208.582031 88.121094 C 1211.523438 84.46875 1216.097656 79.710938 1218.96875 77.316406 C 1232.046875 66.40625 1252.546875 59.636719 1272.527344 59.628906 C 1286.652344 59.625 1300.417969 62.597656 1308.910156 67.484375 C 1317.175781 72.238281 1324.449219 81.214844 1327.519531 90.441406 C 1329.164062 95.394531 1330.105469 102.042969 1329.621094 105.289062 L 1329.402344 106.742188 L 1286.863281 106.742188 L 1286.734375 104.753906 C 1286.5625 102.058594 1285.554688 100.117188 1282.847656 97.269531 C 1280.167969 94.445312 1278.929688 93.683594 1275.171875 92.539062 C 1272.609375 91.753906 1271.820312 91.664062 1267.691406 91.664062 C 1263.710938 91.664062 1262.644531 91.78125 1259.953125 92.503906 C 1254.78125 93.894531 1252.382812 95.242188 1249.070312 98.609375 C 1245.070312 102.671875 1242.613281 107.105469 1239.992188 114.984375 C 1238.21875 120.304688 1237.464844 124.339844 1237.238281 129.664062 C 1237.019531 134.84375 1237.453125 137.863281 1238.988281 141.902344 C 1242.125 150.164062 1254.820312 153.902344 1266.515625 150.011719 C 1270.933594 148.542969 1273.085938 147.207031 1276.472656 143.839844 C 1279.722656 140.605469 1281.523438 138.042969 1282.855469 134.773438 L 1283.574219 133.003906 L 1305.269531 132.921875 L 1326.964844 132.84375 L 1326.746094 133.71875 C 1326.300781 135.507812 1323.949219 141.171875 1322.394531 144.203125 C 1311.910156 164.621094 1291.917969 177.6875 1265.535156 181.367188 C 1262.429688 181.800781 1251.550781 182.570312 1250.183594 182.453125 C 1249.921875 182.429688 1247.773438 182.300781 1245.410156 182.164062 Z M 1245.410156 182.164062 "/>
</g>
</svg>
