<?xml version="1.0" encoding="UTF-8"?>
<svg width="100%" height="100%" viewBox="0 0 1200 359" version="1.1" xmlns="http://www.w3.org/2000/svg" xmlns:xlink="http://www.w3.org/1999/xlink" xml:space="preserve" xmlns:serif="http://www.serif.com/" style="fill-rule:evenodd;clip-rule:evenodd;stroke-linejoin:round;stroke-miterlimit:2;">
<g id="surface1">
<path style=" stroke:none;fill-rule:nonzero;fill:rgb(0%,37.64706%,68.627453%);fill-opacity:1;" d="M 147.703125 238.535156 C 147.703125 226.007812 147.835938 192.53125 147.527344 188.40625 C 147.796875 138.585938 111.589844 103.445312 88.710938 106.183594 C 72.882812 107.558594 59.617188 114.015625 52.496094 132.589844 C 45.894531 149.902344 51.796875 172.925781 73.746094 178.328125 C 97.214844 184.128906 110.921875 188.957031 120.839844 195.769531 C 132.992188 204.105469 142.914062 220.039062 143.175781 238.554688 "/>
<path style=" stroke:none;fill-rule:nonzero;fill:rgb(0%,37.64706%,68.627453%);fill-opacity:1;" d="M 157.070312 314.261719 C 115.6875 314.261719 73.15625 304.066406 30.679688 283.898438 L 29.640625 283.386719 L 29.140625 282.324219 C 10.078125 242.078125 0 198.054688 0 154.984375 C 0 111.980469 9.667969 69.84375 28.742188 29.652344 L 29.265625 28.582031 L 30.328125 28.050781 C 69.617188 9.429688 111.886719 0 155.996094 0 C 197.082031 0 240.964844 10.5 282.875 30.417969 L 283.953125 30.894531 L 284.449219 31.984375 C 303.875 72.972656 314.117188 116.984375 314.117188 159.335938 C 314.117188 201.527344 304.28125 243.703125 284.832031 284.667969 L 284.320312 285.742188 L 283.238281 286.242188 C 244.546875 304.5625 200.914062 314.261719 157.070312 314.261719 M 34.613281 278.378906 C 75.875 297.796875 117.027344 307.601562 157.070312 307.601562 C 199.53125 307.601562 241.757812 298.316406 279.347656 280.71875 C 298.019531 241.023438 307.484375 200.167969 307.484375 159.335938 C 307.484375 118.34375 297.605469 75.699219 278.917969 35.914062 C 238.246094 16.789062 195.769531 6.644531 155.996094 6.644531 C 113.289062 6.644531 72.359375 15.707031 34.253906 33.582031 C 15.964844 72.539062 6.65625 113.363281 6.65625 154.984375 C 6.65625 196.691406 16.332031 239.351562 34.613281 278.378906 "/>
<path style=" stroke:none;fill-rule:nonzero;fill:rgb(0%,37.64706%,68.627453%);fill-opacity:1;" d="M 137.894531 238.554688 C 137.96875 222.5 129.011719 208.300781 117.304688 200.671875 C 106.917969 193.929688 92.976562 189.5 70.480469 183.792969 C 63.527344 182.015625 56.253906 178.0625 54.003906 173.023438 C 48.046875 179.027344 46.964844 192.523438 48.015625 200.414062 C 49.230469 209.539062 59.894531 224.585938 75.949219 225.175781 C 85.757812 225.566406 98.152344 223.0625 104.097656 221.800781 C 114.351562 219.585938 130.578125 226.007812 133.160156 238.535156 "/>
<path style=" stroke:none;fill-rule:nonzero;fill:rgb(0%,37.64706%,68.627453%);fill-opacity:1;" d="M 155.996094 28.542969 C 128.769531 28.542969 105.253906 46.503906 105.339844 77.578125 C 105.425781 103.710938 126.433594 117.703125 133.929688 127.695312 C 145.261719 142.753906 151.390625 160.574219 152.027344 187.847656 C 152.523438 209.550781 152.5 230.984375 152.609375 238.582031 L 158.621094 238.582031 C 158.515625 230.632812 158.242188 207.878906 158.554688 187.175781 C 158.960938 159.894531 165.316406 142.753906 176.648438 127.695312 C 184.210938 117.703125 205.203125 103.710938 205.25 77.578125 C 205.351562 46.503906 181.847656 28.542969 154.648438 28.542969 "/>
<path style=" stroke:none;fill-rule:nonzero;fill:rgb(0%,37.64706%,68.627453%);fill-opacity:1;" d="M 162.90625 238.535156 C 162.90625 226.007812 162.761719 192.53125 163.066406 188.40625 C 162.800781 138.585938 198.988281 103.445312 221.882812 106.183594 C 237.710938 107.558594 250.964844 114.015625 258.105469 132.589844 C 264.703125 149.902344 258.765625 172.925781 236.84375 178.328125 C 213.359375 184.128906 199.671875 188.957031 189.726562 195.769531 C 177.589844 204.105469 168.363281 220.039062 168.078125 238.554688 "/>
<path style=" stroke:none;fill-rule:nonzero;fill:rgb(0%,37.64706%,68.627453%);fill-opacity:1;" d="M 172.707031 238.554688 C 172.621094 222.5 181.578125 208.300781 193.25 200.671875 C 203.679688 193.929688 217.640625 189.5 240.113281 183.792969 C 247.082031 182.015625 254.34375 178.0625 256.558594 173.023438 C 262.542969 179.027344 263.621094 192.523438 262.574219 200.414062 C 261.328125 209.539062 250.695312 224.585938 234.667969 225.175781 C 224.863281 225.566406 212.402344 223.0625 206.484375 221.800781 C 196.269531 219.585938 179.996094 226.007812 177.402344 238.535156 "/>
<path style=" stroke:none;fill-rule:nonzero;fill:rgb(0%,37.64706%,68.627453%);fill-opacity:1;" d="M 181.105469 290.386719 L 177.621094 264.960938 L 186.03125 263.683594 C 188.078125 263.402344 190.570312 263.761719 191.566406 265.042969 C 192.667969 266.382812 193.003906 267.492188 193.21875 269.25 C 193.535156 271.421875 192.90625 273.933594 190.460938 275.1875 L 190.460938 275.261719 C 193.191406 275.261719 194.84375 277.226562 195.320312 280.542969 C 195.394531 281.242188 195.597656 282.933594 195.394531 284.34375 C 194.835938 287.699219 192.835938 288.78125 189.457031 289.253906 Z M 186.515625 285.832031 C 187.515625 285.691406 188.523438 285.636719 189.316406 285.132812 C 190.523438 284.34375 190.414062 282.652344 190.246094 281.398438 C 189.824219 278.636719 189.105469 277.589844 186.179688 278.023438 L 184.339844 278.304688 L 185.503906 285.976562 Z M 184.753906 274.085938 C 185.867188 273.902344 187.378906 273.769531 188.007812 272.714844 C 188.335938 272.007812 188.757812 271.445312 188.480469 269.878906 C 188.136719 268.015625 187.519531 266.863281 185.15625 267.3125 L 182.957031 267.664062 L 183.824219 274.179688 "/>
<path style=" stroke:none;fill-rule:nonzero;fill:rgb(0%,37.64706%,68.627453%);fill-opacity:1;" d="M 217.527344 275.09375 C 217.59375 275.566406 217.671875 276.09375 217.699219 276.566406 C 218.378906 281.203125 217.527344 285.042969 212.316406 286.101562 C 204.613281 287.585938 203.140625 282.796875 201.78125 276.09375 L 201.058594 272.46875 C 199.996094 266.054688 199.542969 261.195312 207.054688 259.699219 C 211.285156 258.925781 214.085938 260.613281 215.25 264.828125 C 215.429688 265.457031 215.65625 266.082031 215.742188 266.714844 L 211.132812 267.664062 C 210.601562 266.082031 209.898438 263.25 207.824219 263.488281 C 204.101562 263.9375 205.332031 268.570312 205.714844 270.503906 L 207.097656 277.464844 C 207.515625 279.570312 208.339844 282.933594 211.5625 282.285156 C 214.175781 281.761719 213.039062 277.6875 212.804688 276.015625 "/>
<path style=" stroke:none;fill-rule:nonzero;fill:rgb(0%,37.64706%,68.627453%);fill-opacity:1;" d="M 224.925781 282.789062 L 223.328125 256.472656 L 229.519531 254.585938 L 242.5 277.46875 L 237.625 278.929688 L 234.550781 273.113281 L 229.136719 274.738281 L 229.839844 281.351562 Z M 228.683594 270.488281 L 232.597656 269.355469 L 227.402344 258.710938 "/>
<path style=" stroke:none;fill-rule:nonzero;fill:rgb(0%,37.64706%,68.627453%);fill-opacity:1;" d="M 72.007812 262.894531 C 73.945312 256.691406 75.683594 252.121094 83.074219 254.152344 C 87.03125 255.257812 89.484375 257 89.367188 261.597656 C 89.347656 262.621094 89.011719 263.664062 88.789062 264.675781 L 84.1875 263.402344 C 84.789062 260.867188 85.171875 258.851562 82.046875 257.886719 C 78.433594 256.894531 77.550781 261.277344 77.050781 263.171875 L 75.179688 270.070312 C 74.585938 272.117188 73.871094 275.503906 77.050781 276.375 C 79.679688 277.085938 81.277344 274.503906 82.226562 270.734375 L 79.007812 269.882812 L 80.121094 265.890625 L 87.691406 268.328125 L 84.097656 281.625 L 80.613281 280.675781 L 81.398438 277.867188 L 81.296875 277.867188 C 79.695312 280.164062 77.738281 280.40625 76.023438 280.078125 C 68.453125 278.027344 69.246094 273.078125 71.050781 266.464844 "/>
<path style=" stroke:none;fill-rule:nonzero;fill:rgb(0%,37.64706%,68.627453%);fill-opacity:1;" d="M 100.1875 274.125 L 97.90625 284.941406 L 92.773438 283.832031 L 98.242188 258.574219 L 106.992188 260.550781 C 112.113281 261.65625 113.660156 263.9375 112.933594 268.632812 C 112.519531 271.324219 111.191406 274.230469 107.949219 273.996094 L 107.914062 273.949219 C 110.65625 274.910156 110.890625 276.292969 110.410156 278.683594 C 110.203125 279.703125 108.777344 285.875 109.761719 286.871094 L 109.796875 287.628906 L 104.484375 286.242188 C 104.265625 284.53125 105.015625 281.457031 105.3125 279.753906 C 105.613281 278.246094 106.089844 276.121094 104.5625 275.320312 C 103.363281 274.683594 102.917969 274.714844 101.566406 274.402344 Z M 101.0625 270.210938 L 104.515625 271.144531 C 106.613281 271.445312 107.78125 270.359375 108.195312 267.824219 C 108.570312 265.496094 108.085938 264.589844 106.203125 264.136719 L 102.496094 263.386719 "/>
<path style=" stroke:none;fill-rule:nonzero;fill:rgb(0%,37.64706%,68.627453%);fill-opacity:1;" d="M 133.101562 264.21875 L 138.175781 264.804688 L 135.992188 282.5625 C 134.929688 288.191406 132.753906 290.652344 126.5625 289.882812 C 120.261719 289.085938 118.769531 286.214844 119.148438 280.542969 L 121.351562 262.800781 L 126.464844 263.386719 L 124.269531 280.730469 C 124.039062 282.617188 123.601562 285.40625 126.953125 285.742188 C 129.925781 285.96875 130.597656 284 130.933594 281.554688 "/>
<path style=" stroke:none;fill-rule:nonzero;fill:rgb(0%,37.64706%,68.627453%);fill-opacity:1;" d="M 143.773438 290.855469 L 145.300781 265.464844 L 155.050781 265.886719 C 159.660156 266.113281 160.867188 269.878906 160.722656 273.46875 C 160.589844 275.65625 159.90625 278.09375 158.003906 279.417969 C 156.441406 280.542969 154.4375 280.808594 152.574219 280.71875 L 149.398438 280.539062 L 148.761719 291.183594 Z M 149.542969 276.667969 L 152.125 276.8125 C 154.222656 276.890625 155.613281 276.058594 155.796875 272.976562 C 155.898438 270.015625 154.777344 269.515625 152.058594 269.394531 L 150.011719 269.324219 "/>
<path style=" stroke:none;fill-rule:nonzero;fill:rgb(0%,37.64706%,68.627453%);fill-opacity:1;" d="M 831.519531 53.085938 L 792.765625 123.449219 C 778.136719 111.566406 760.273438 102.824219 737.484375 102.824219 C 683.550781 102.824219 661.640625 143.039062 661.640625 171.367188 C 661.640625 192.394531 675.40625 223.421875 723.394531 223.421875 C 743.539062 223.421875 772.175781 209.402344 780.414062 203.023438 L 742.085938 284.660156 C 723.816406 288.308594 717.8125 290.566406 702.347656 291.046875 C 616.453125 293.609375 581.746094 240.828125 581.773438 186.894531 C 581.828125 115.597656 645.199219 28.886719 750.25 28.886719 C 756.6875 28.886719 764.5625 31.113281 771.292969 33.582031 L 778.097656 24.878906 "/>
<path style=" stroke:none;fill-rule:nonzero;fill:rgb(0%,37.64706%,68.627453%);fill-opacity:1;" d="M 991.433594 27.085938 L 1002.410156 282.835938 L 920.734375 282.835938 L 920.6875 238.972656 L 864.992188 238.972656 L 846.664062 282.835938 L 758.085938 282.835938 L 850.691406 100.207031 L 829.808594 100.070312 L 869.484375 27.085938 Z M 920.15625 105.324219 L 888.667969 179.714844 L 921.105469 179.714844 "/>
<path style=" stroke:none;fill-rule:nonzero;fill:rgb(0%,37.64706%,68.627453%);fill-opacity:1;" d="M 530.207031 27.085938 C 570.65625 27.3125 593.511719 49.273438 593.511719 81 C 593.511719 110.246094 569.40625 136.132812 542.945312 149.519531 C 570.1875 159.539062 572.542969 184.128906 572.542969 201.527344 C 572.542969 243.5625 530.382812 282.835938 475.574219 282.835938 L 356.050781 282.835938 L 402.675781 102.75 L 383.523438 102.640625 L 422.671875 27.085938 C 422.671875 27.085938 497.320312 26.859375 530.207031 27.085938 M 490.527344 130.777344 C 498.894531 130.777344 513.664062 128.65625 517.359375 112.460938 C 521.40625 94.878906 507.542969 94.40625 500.894531 94.40625 L 477.128906 94.300781 L 468.84375 130.777344 Z M 456.929688 175.972656 L 445.992188 218.003906 L 473.96875 218.003906 C 484.980469 218.003906 499.980469 212.539062 503.65625 198.859375 C 507.289062 185.140625 496.800781 175.972656 485.832031 175.972656 "/>
<path style=" stroke:none;fill-rule:nonzero;fill:rgb(0%,65.098041%,70.980394%);fill-opacity:1;" d="M 1655.300781 280.664062 C 1655.441406 280.183594 1662.765625 239.191406 1671.574219 189.578125 C 1680.386719 139.960938 1687.707031 98.859375 1687.847656 98.242188 L 1688.105469 97.117188 L 1752.617188 97.117188 L 1752.335938 98.492188 C 1751.847656 100.863281 1747.542969 127.007812 1747.542969 127.59375 C 1747.542969 127.902344 1749.859375 126.058594 1752.691406 123.503906 C 1769.960938 107.917969 1787.695312 98.203125 1803.960938 95.421875 C 1814.132812 93.683594 1828.316406 94.707031 1837.808594 97.871094 C 1851.007812 102.261719 1858.996094 108.664062 1863.980469 118.84375 C 1870.191406 131.527344 1870.84375 144.890625 1866.453125 169.585938 C 1864.945312 178.074219 1846.964844 281.21875 1846.964844 281.386719 C 1846.964844 281.46875 1831.222656 281.539062 1811.984375 281.539062 L 1777 281.539062 L 1777.261719 280.414062 C 1777.570312 279.089844 1790.355469 211.535156 1792.226562 201.320312 C 1794.511719 188.871094 1796.503906 173.945312 1796.5 169.335938 C 1796.488281 162.34375 1794.601562 156.839844 1791.386719 154.425781 C 1788.949219 152.597656 1784.882812 150.675781 1781.667969 149.839844 C 1773.660156 147.753906 1762.8125 150.429688 1756.417969 156.074219 C 1751.515625 160.398438 1746.042969 170.371094 1743.328125 179.917969 C 1742.410156 183.15625 1724.058594 279.679688 1724.058594 281.285156 C 1724.058594 281.425781 1708.53125 281.539062 1689.550781 281.539062 C 1656.921875 281.539062 1655.058594 281.492188 1655.300781 280.664062 Z M 1655.300781 280.664062 "/>
<path style=" stroke:none;fill-rule:nonzero;fill:rgb(0%,65.098041%,70.980394%);fill-opacity:1;" d="M 1231.445312 281.414062 C 1231.453125 281.34375 1238.828125 239.90625 1247.839844 189.328125 L 1264.222656 97.367188 L 1296.574219 97.238281 C 1327.234375 97.117188 1328.914062 97.15625 1328.679688 97.988281 C 1327.988281 100.421875 1323.804688 127.214844 1324.074219 127.484375 C 1324.246094 127.65625 1325.558594 126.652344 1326.996094 125.257812 C 1335.3125 117.175781 1347.621094 108.339844 1357.75 103.183594 C 1369.5625 97.164062 1379.59375 94.613281 1391.460938 94.621094 C 1416.503906 94.628906 1434.652344 104.394531 1441.597656 121.59375 C 1446.371094 133.417969 1446.710938 146.667969 1442.804688 168.835938 C 1437.984375 196.226562 1423.285156 280.75 1423.285156 281.097656 C 1423.285156 281.347656 1408.21875 281.539062 1388.273438 281.539062 L 1353.257812 281.539062 L 1353.546875 280.164062 C 1354.886719 273.738281 1368.179688 202.871094 1369.320312 196.074219 C 1372.050781 179.816406 1372.949219 172.128906 1372.6875 167.335938 C 1372.25 159.304688 1369.832031 155.125 1363.898438 152.125 C 1359.191406 149.75 1355.269531 148.9375 1350.089844 149.269531 C 1337.714844 150.058594 1329.648438 156.246094 1323.335938 169.792969 C 1319.816406 177.347656 1318.570312 182.90625 1309.390625 232.171875 C 1304.433594 258.757812 1300.378906 280.742188 1300.378906 281.023438 C 1300.378906 281.371094 1289.144531 281.539062 1265.90625 281.539062 C 1246.945312 281.539062 1231.4375 281.480469 1231.445312 281.414062 Z M 1231.445312 281.414062 "/>
<path style=" stroke:none;fill-rule:nonzero;fill:rgb(0%,65.098041%,70.980394%);fill-opacity:1;" d="M 1140.605469 280.664062 C 1140.730469 280.183594 1147.890625 238.910156 1156.519531 188.953125 L 1172.207031 98.117188 L 1239.503906 98.117188 L 1239.21875 99.488281 C 1239.0625 100.246094 1232.066406 140.898438 1223.679688 189.828125 C 1215.289062 238.757812 1208.300781 279.40625 1208.148438 280.164062 L 1207.867188 281.539062 L 1174.125 281.539062 C 1142.238281 281.539062 1140.394531 281.488281 1140.605469 280.664062 Z M 1140.605469 280.664062 "/>
<path style=" stroke:none;fill-rule:nonzero;fill:rgb(0%,65.098041%,70.980394%);fill-opacity:1;" d="M 1029.828125 280.914062 C 1029.976562 280.292969 1035.042969 251.226562 1041.085938 216.316406 C 1047.132812 181.40625 1052.203125 152.222656 1052.359375 151.46875 L 1052.644531 150.09375 L 1026.507812 150.09375 L 1026.789062 148.71875 C 1026.945312 147.964844 1028.882812 136.773438 1031.089844 123.855469 C 1033.296875 110.933594 1035.230469 99.746094 1035.382812 98.992188 L 1035.65625 97.617188 L 1062.039062 97.617188 L 1062.277344 96.492188 C 1062.410156 95.871094 1062.769531 94.015625 1063.074219 92.367188 C 1067.027344 71.097656 1075.601562 52.003906 1085.75 41.867188 C 1094 33.632812 1107.1875 27.847656 1123.511719 25.308594 C 1131.421875 24.082031 1152.691406 24.070312 1162.933594 25.292969 C 1172.152344 26.390625 1183.15625 28.144531 1183.960938 28.640625 C 1184.433594 28.933594 1182.847656 34.253906 1177.609375 49.953125 L 1170.632812 70.878906 L 1163.183594 70.710938 C 1149.6875 70.410156 1144.167969 71.800781 1139.496094 76.679688 C 1135.59375 80.75 1134.21875 84.382812 1132.28125 95.742188 L 1131.960938 97.617188 L 1148.96875 97.617188 C 1163.875 97.617188 1165.980469 97.710938 1165.980469 98.378906 C 1165.980469 99.023438 1158.007812 144.652344 1157.1875 148.71875 L 1156.90625 150.09375 L 1122.261719 150.09375 L 1110.109375 215.1875 C 1103.421875 250.992188 1097.84375 280.675781 1097.707031 281.15625 C 1097.480469 281.980469 1095.421875 282.03125 1063.515625 282.03125 L 1029.5625 282.03125 L 1029.828125 280.90625 Z M 1029.828125 280.914062 "/>
<path style=" stroke:none;fill-rule:nonzero;fill:rgb(0%,65.098041%,70.980394%);fill-opacity:1;" d="M 1487.761719 285.496094 C 1475.929688 284.355469 1468.246094 281.507812 1459.507812 275.035156 C 1452.976562 270.195312 1448.597656 265.207031 1445.546875 259.125 C 1440.992188 250.054688 1440.902344 235.355469 1445.328125 222.675781 C 1451.300781 205.566406 1466.109375 191.492188 1485.0625 184.914062 C 1493.109375 182.117188 1502.132812 180.042969 1530.953125 174.359375 C 1564.476562 167.75 1572.089844 166.015625 1578.496094 163.523438 C 1587.265625 160.117188 1589.316406 157.925781 1589.277344 151.992188 C 1589.242188 146.523438 1586.503906 142.324219 1581.199219 139.617188 C 1575.625 136.773438 1564.035156 136.03125 1556.03125 138.007812 C 1543.976562 140.984375 1533.703125 147.972656 1529.863281 155.8125 C 1528.550781 158.484375 1528.375 158.640625 1526.960938 158.402344 C 1526.136719 158.261719 1511.574219 156.515625 1494.605469 154.515625 C 1467.09375 151.277344 1463.753906 150.789062 1463.753906 150.019531 C 1463.753906 149.542969 1464.34375 147.511719 1465.066406 145.503906 C 1469.929688 131.953125 1479.703125 120.335938 1494.535156 110.476562 C 1507.890625 101.59375 1520.28125 97.332031 1540.242188 94.761719 C 1548.609375 93.6875 1584.378906 93.542969 1595.15625 94.542969 C 1608.339844 95.769531 1624.21875 99.859375 1633.097656 104.316406 C 1641.097656 108.332031 1648.085938 114.421875 1650.9375 119.859375 C 1655.140625 127.875 1657.441406 139.714844 1656.90625 150.59375 C 1656.277344 163.359375 1654.632812 174.042969 1647.113281 214.316406 C 1641.597656 243.859375 1640.636719 250.042969 1640.273438 258.320312 C 1639.964844 265.351562 1640.722656 271.589844 1642.621094 277.644531 C 1643.164062 279.375 1643.609375 280.957031 1643.613281 281.164062 C 1643.617188 281.371094 1629.03125 281.539062 1611.199219 281.539062 L 1578.777344 281.539062 L 1577.753906 279.355469 C 1576.480469 276.644531 1575.304688 270.8125 1574.738281 264.40625 C 1574.5 261.71875 1574.183594 259.394531 1574.035156 259.246094 C 1573.886719 259.097656 1571.578125 260.816406 1568.90625 263.0625 C 1559.402344 271.054688 1551.46875 275.507812 1539.917969 279.320312 C 1523.589844 284.710938 1503.871094 287.046875 1487.761719 285.496094 Z M 1546.441406 244.445312 C 1551.507812 242.636719 1558.464844 239.023438 1562 236.367188 C 1563.683594 235.097656 1567 232.023438 1569.371094 229.535156 C 1574.433594 224.210938 1577.359375 218.789062 1579.367188 211.007812 C 1580.640625 206.070312 1582.3125 196.054688 1581.925781 195.667969 C 1581.726562 195.46875 1573.671875 197.496094 1550.441406 203.59375 C 1527.886719 209.511719 1516.980469 215.753906 1514.480469 224.175781 C 1513.578125 227.21875 1513.480469 233.40625 1514.296875 236.128906 C 1515.101562 238.8125 1517.851562 241.855469 1520.84375 243.371094 C 1524.925781 245.441406 1528.675781 246.050781 1536.199219 245.859375 C 1541.84375 245.71875 1543.515625 245.488281 1546.441406 244.445312 Z M 1546.441406 244.445312 "/>
<path style=" stroke:none;fill-rule:nonzero;fill:rgb(0%,65.098041%,70.980394%);fill-opacity:1;" d="M 2161.480469 286 C 2146.152344 285.113281 2133.140625 281.714844 2121.285156 275.503906 C 2108.996094 269.058594 2097.78125 257.726562 2091.671875 245.582031 C 2088.234375 238.742188 2084.578125 225.753906 2085.714844 224.414062 C 2085.996094 224.085938 2097.363281 215.71875 2110.976562 205.820312 C 2124.589844 195.925781 2135.675781 187.597656 2135.613281 187.3125 C 2135.550781 187.027344 2127.515625 179.292969 2117.761719 170.125 C 2108.007812 160.957031 2099.601562 153.058594 2099.085938 152.570312 C 2098.171875 151.710938 2098.195312 151.605469 2100.054688 148.515625 C 2111.238281 129.921875 2135.171875 110.859375 2157.335938 102.890625 C 2196.726562 88.734375 2236.9375 90.855469 2266.398438 108.640625 C 2285.601562 120.230469 2295.609375 137.921875 2297.644531 163.875 C 2298.394531 173.433594 2297.277344 186.8125 2294.472656 201.824219 L 2293.820312 205.320312 L 2223.527344 205.449219 L 2153.234375 205.574219 L 2153.234375 210.59375 C 2153.234375 217.664062 2154.292969 222.359375 2157.246094 228.398438 C 2159.246094 232.488281 2160.292969 233.984375 2162.601562 236.054688 C 2166.125 239.210938 2172.363281 242.320312 2177.285156 243.371094 C 2188.046875 245.667969 2203.824219 241.273438 2211.417969 233.863281 C 2213.136719 232.183594 2214.890625 230.292969 2215.308594 229.65625 L 2216.074219 228.5 L 2250.113281 230.957031 C 2268.835938 232.304688 2284.292969 233.546875 2284.460938 233.71875 C 2284.628906 233.886719 2282.882812 236.660156 2280.582031 239.882812 C 2260.914062 267.398438 2226.617188 284.585938 2188.957031 285.792969 C 2172.136719 286.332031 2167.773438 286.367188 2161.480469 286 Z M 2227.875 173.292969 C 2228.457031 171.785156 2228.160156 159.824219 2227.460938 156.527344 C 2225.671875 148.101562 2220.261719 141.574219 2213.019531 139.117188 C 2205.6875 136.632812 2196.609375 136.625 2189.167969 139.101562 C 2176.769531 143.226562 2165.640625 156.039062 2161.0625 171.460938 L 2160.285156 174.085938 L 2193.929688 174.085938 C 2224.144531 174.085938 2227.601562 174.003906 2227.875 173.292969 Z M 2227.875 173.292969 "/>
<path style=" stroke:none;fill-rule:nonzero;fill:rgb(0%,65.098041%,70.980394%);fill-opacity:1;" d="M 1954.886719 285.996094 C 1937.539062 284.988281 1920.308594 281.015625 1909.277344 275.476562 C 1898.550781 270.09375 1889.371094 261.484375 1881.679688 249.589844 C 1875.394531 239.871094 1871.960938 227.765625 1871.960938 215.316406 C 1871.953125 184.4375 1880.128906 159.382812 1897.074219 138.347656 C 1901.695312 132.613281 1908.875 125.144531 1913.378906 121.386719 C 1933.914062 104.253906 1966.089844 93.628906 1997.449219 93.621094 C 2019.625 93.613281 2041.230469 98.277344 2054.558594 105.949219 C 2067.535156 113.414062 2078.953125 127.507812 2083.769531 141.992188 C 2086.355469 149.769531 2087.832031 160.207031 2087.066406 165.304688 L 2086.722656 167.585938 L 2019.953125 167.585938 L 2019.75 164.460938 C 2019.480469 160.230469 2017.898438 157.1875 2013.652344 152.714844 C 2009.445312 148.28125 2007.503906 147.085938 2001.601562 145.285156 C 1997.578125 144.054688 1996.339844 143.910156 1989.859375 143.914062 C 1983.609375 143.914062 1981.941406 144.097656 1977.714844 145.234375 C 1969.597656 147.417969 1965.832031 149.527344 1960.628906 154.816406 C 1954.355469 161.195312 1950.492188 168.160156 1946.378906 180.523438 C 1943.597656 188.878906 1942.414062 195.210938 1942.058594 203.570312 C 1941.714844 211.703125 1942.394531 216.445312 1944.804688 222.789062 C 1949.730469 235.757812 1969.65625 241.625 1988.015625 235.519531 C 1994.945312 233.214844 1998.328125 231.117188 2003.640625 225.828125 C 2008.742188 220.753906 2011.574219 216.730469 2013.660156 211.59375 L 2014.789062 208.820312 L 2082.898438 208.5625 L 2082.554688 209.941406 C 2081.859375 212.75 2078.167969 221.640625 2075.722656 226.398438 C 2059.269531 258.453125 2027.886719 278.96875 1986.476562 284.75 C 1981.597656 285.429688 1964.523438 286.636719 1962.378906 286.453125 C 1961.96875 286.417969 1958.59375 286.210938 1954.886719 285.996094 Z M 1954.886719 285.996094 "/>
</g>
</svg>
