<?xml version="1.0" encoding="UTF-8"?>
<svg xmlns="http://www.w3.org/2000/svg" xmlns:xlink="http://www.w3.org/1999/xlink" width="1000px" height="137px" viewBox="0 0 1002 137" version="1.1">
<g id="surface1">
<path style=" stroke:none;fill-rule:nonzero;fill:rgb(0%,37.64706%,68.627453%);fill-opacity:1;" d="M 64.402344 104.074219 C 64.402344 98.609375 64.460938 84.003906 64.328125 82.203125 C 64.445312 60.464844 48.65625 45.132812 38.679688 46.328125 C 31.78125 46.929688 25.996094 49.746094 22.890625 57.851562 C 20.011719 65.402344 22.585938 75.449219 32.15625 77.804688 C 42.390625 80.335938 48.363281 82.445312 52.6875 85.414062 C 57.988281 89.054688 62.3125 96.003906 62.429688 104.082031 "/>
<path style=" stroke:none;fill-rule:nonzero;fill:rgb(0%,37.64706%,68.627453%);fill-opacity:1;" d="M 68.488281 137.113281 C 50.441406 137.113281 31.898438 132.664062 13.378906 123.867188 L 12.921875 123.644531 L 12.707031 123.179688 C 4.394531 105.621094 0 86.414062 0 67.621094 C 0 48.859375 4.214844 30.472656 12.53125 12.9375 L 12.761719 12.472656 L 13.222656 12.238281 C 30.355469 4.113281 48.785156 0 68.019531 0 C 85.933594 0 105.070312 4.582031 123.34375 13.269531 L 123.8125 13.480469 L 124.027344 13.953125 C 132.5 31.839844 136.964844 51.039062 136.964844 69.519531 C 136.964844 87.929688 132.675781 106.328125 124.195312 124.203125 L 123.972656 124.671875 L 123.5 124.890625 C 106.628906 132.882812 87.605469 137.113281 68.488281 137.113281 M 15.09375 121.457031 C 33.082031 129.929688 51.027344 134.207031 68.488281 134.207031 C 87 134.207031 105.414062 130.15625 121.804688 122.480469 C 129.945312 105.160156 134.074219 87.335938 134.074219 69.519531 C 134.074219 51.632812 129.765625 33.027344 121.617188 15.671875 C 103.882812 7.324219 85.363281 2.898438 68.019531 2.898438 C 49.398438 2.898438 31.550781 6.851562 14.9375 14.652344 C 6.960938 31.648438 2.902344 49.460938 2.902344 67.621094 C 2.902344 85.816406 7.121094 104.429688 15.09375 121.457031 "/>
<path style=" stroke:none;fill-rule:nonzero;fill:rgb(0%,37.64706%,68.627453%);fill-opacity:1;" d="M 60.125 104.082031 C 60.160156 97.078125 56.253906 90.882812 51.148438 87.554688 C 46.621094 84.613281 40.539062 82.679688 30.730469 80.191406 C 27.699219 79.414062 24.527344 77.6875 23.546875 75.492188 C 20.949219 78.109375 20.480469 84 20.9375 87.441406 C 21.464844 91.421875 26.117188 97.988281 33.117188 98.246094 C 37.390625 98.417969 42.796875 97.324219 45.390625 96.773438 C 49.859375 95.804688 56.9375 98.609375 58.0625 104.074219 "/>
<path style=" stroke:none;fill-rule:nonzero;fill:rgb(0%,37.64706%,68.627453%);fill-opacity:1;" d="M 68.019531 12.453125 C 56.148438 12.453125 45.894531 20.289062 45.933594 33.847656 C 45.96875 45.25 55.128906 51.355469 58.398438 55.714844 C 63.339844 62.285156 66.011719 70.058594 66.289062 81.957031 C 66.503906 91.429688 66.496094 100.78125 66.542969 104.09375 L 69.164062 104.09375 C 69.117188 100.625 69 90.699219 69.132812 81.664062 C 69.3125 69.761719 72.082031 62.285156 77.023438 55.714844 C 80.320312 51.355469 89.476562 45.25 89.496094 33.847656 C 89.539062 20.289062 79.292969 12.453125 67.433594 12.453125 "/>
<path style=" stroke:none;fill-rule:nonzero;fill:rgb(0%,37.64706%,68.627453%);fill-opacity:1;" d="M 71.03125 104.074219 C 71.03125 98.609375 70.96875 84.003906 71.101562 82.203125 C 70.984375 60.464844 86.765625 45.132812 96.746094 46.328125 C 103.648438 46.929688 109.429688 49.746094 112.542969 57.851562 C 115.417969 65.402344 112.828125 75.449219 103.269531 77.804688 C 93.03125 80.335938 87.0625 82.445312 82.726562 85.414062 C 77.433594 89.054688 73.410156 96.003906 73.289062 104.082031 "/>
<path style=" stroke:none;fill-rule:nonzero;fill:rgb(0%,37.64706%,68.627453%);fill-opacity:1;" d="M 75.304688 104.082031 C 75.269531 97.078125 79.171875 90.882812 84.265625 87.554688 C 88.8125 84.613281 94.898438 82.679688 104.695312 80.191406 C 107.734375 79.414062 110.902344 77.6875 111.867188 75.492188 C 114.476562 78.109375 114.945312 84 114.488281 87.441406 C 113.949219 91.421875 109.308594 97.988281 102.320312 98.246094 C 98.046875 98.417969 92.613281 97.324219 90.035156 96.773438 C 85.578125 95.804688 78.484375 98.609375 77.351562 104.074219 "/>
<path style=" stroke:none;fill-rule:nonzero;fill:rgb(0%,37.64706%,68.627453%);fill-opacity:1;" d="M 78.96875 126.699219 L 77.449219 115.601562 L 81.113281 115.046875 C 82.007812 114.925781 83.09375 115.082031 83.527344 115.640625 C 84.007812 116.226562 84.15625 116.707031 84.25 117.476562 C 84.386719 118.421875 84.113281 119.519531 83.046875 120.066406 L 83.046875 120.097656 C 84.238281 120.097656 84.957031 120.957031 85.167969 122.402344 C 85.199219 122.707031 85.289062 123.445312 85.199219 124.0625 C 84.957031 125.527344 84.082031 125.996094 82.609375 126.203125 Z M 81.328125 124.710938 C 81.761719 124.648438 82.203125 124.625 82.546875 124.40625 C 83.074219 124.0625 83.027344 123.324219 82.953125 122.773438 C 82.769531 121.570312 82.457031 121.113281 81.179688 121.304688 L 80.378906 121.425781 L 80.886719 124.773438 Z M 80.558594 119.585938 C 81.042969 119.507812 81.703125 119.449219 81.976562 118.988281 C 82.121094 118.679688 82.304688 118.433594 82.183594 117.75 C 82.035156 116.9375 81.765625 116.433594 80.734375 116.628906 L 79.773438 116.785156 L 80.152344 119.625 "/>
<path style=" stroke:none;fill-rule:nonzero;fill:rgb(0%,37.64706%,68.627453%);fill-opacity:1;" d="M 94.847656 120.023438 C 94.878906 120.230469 94.910156 120.460938 94.921875 120.667969 C 95.21875 122.691406 94.847656 124.367188 92.578125 124.828125 C 89.21875 125.476562 88.574219 123.386719 87.984375 120.460938 L 87.667969 118.878906 C 87.207031 116.082031 87.007812 113.960938 90.28125 113.308594 C 92.128906 112.972656 93.347656 113.707031 93.855469 115.546875 C 93.933594 115.820312 94.035156 116.09375 94.070312 116.367188 L 92.0625 116.785156 C 91.828125 116.09375 91.519531 114.859375 90.617188 114.960938 C 88.996094 115.15625 89.53125 117.179688 89.699219 118.023438 L 90.300781 121.058594 C 90.484375 121.976562 90.84375 123.445312 92.246094 123.160156 C 93.386719 122.933594 92.890625 121.15625 92.789062 120.429688 "/>
<path style=" stroke:none;fill-rule:nonzero;fill:rgb(0%,37.64706%,68.627453%);fill-opacity:1;" d="M 98.074219 123.382812 L 97.378906 111.902344 L 100.078125 111.078125 L 105.738281 121.0625 L 103.613281 121.699219 L 102.269531 119.160156 L 99.910156 119.871094 L 100.214844 122.753906 Z M 99.714844 118.015625 L 101.417969 117.523438 L 99.15625 112.875 "/>
<path style=" stroke:none;fill-rule:nonzero;fill:rgb(0%,37.64706%,68.627453%);fill-opacity:1;" d="M 31.398438 114.703125 C 32.242188 111.996094 33 110.003906 36.222656 110.886719 C 37.949219 111.371094 39.015625 112.132812 38.964844 114.136719 C 38.957031 114.582031 38.8125 115.039062 38.714844 115.480469 L 36.707031 114.925781 C 36.972656 113.816406 37.136719 112.9375 35.773438 112.519531 C 34.199219 112.085938 33.816406 113.996094 33.597656 114.824219 L 32.78125 117.832031 C 32.523438 118.726562 32.210938 120.203125 33.597656 120.585938 C 34.742188 120.894531 35.4375 119.769531 35.855469 118.125 L 34.449219 117.75 L 34.933594 116.011719 L 38.234375 117.074219 L 36.667969 122.875 L 35.148438 122.460938 L 35.492188 121.234375 L 35.449219 121.234375 C 34.75 122.238281 33.894531 122.34375 33.148438 122.199219 C 29.847656 121.304688 30.191406 119.144531 30.980469 116.261719 "/>
<path style=" stroke:none;fill-rule:nonzero;fill:rgb(0%,37.64706%,68.627453%);fill-opacity:1;" d="M 43.683594 119.601562 L 42.691406 124.320312 L 40.453125 123.835938 L 42.835938 112.816406 L 46.652344 113.679688 C 48.882812 114.160156 49.558594 115.15625 49.242188 117.207031 C 49.0625 118.382812 48.484375 119.648438 47.070312 119.546875 L 47.054688 119.527344 C 48.25 119.945312 48.351562 120.546875 48.140625 121.589844 C 48.050781 122.035156 47.429688 124.730469 47.859375 125.164062 L 47.875 125.492188 L 45.558594 124.890625 C 45.460938 124.144531 45.789062 122.800781 45.917969 122.058594 C 46.050781 121.398438 46.257812 120.472656 45.59375 120.125 C 45.070312 119.847656 44.875 119.859375 44.285156 119.722656 Z M 44.066406 117.894531 L 45.574219 118.300781 C 46.488281 118.433594 46.996094 117.960938 47.175781 116.851562 C 47.339844 115.839844 47.128906 115.441406 46.308594 115.246094 L 44.691406 114.917969 "/>
<path style=" stroke:none;fill-rule:nonzero;fill:rgb(0%,37.64706%,68.627453%);fill-opacity:1;" d="M 58.035156 115.28125 L 60.25 115.535156 L 59.296875 123.285156 C 58.832031 125.738281 57.882812 126.8125 55.183594 126.476562 C 52.4375 126.128906 51.785156 124.878906 51.953125 122.402344 L 52.914062 114.660156 L 55.144531 114.917969 L 54.1875 122.484375 C 54.085938 123.308594 53.894531 124.523438 55.355469 124.671875 C 56.652344 124.769531 56.945312 123.910156 57.089844 122.84375 "/>
<path style=" stroke:none;fill-rule:nonzero;fill:rgb(0%,37.64706%,68.627453%);fill-opacity:1;" d="M 62.691406 126.902344 L 63.355469 115.824219 L 67.605469 116.007812 C 69.617188 116.105469 70.140625 117.75 70.078125 119.316406 C 70.019531 120.269531 69.722656 121.332031 68.894531 121.910156 C 68.214844 122.402344 67.339844 122.519531 66.527344 122.480469 L 65.140625 122.402344 L 64.867188 127.042969 Z M 65.207031 120.710938 L 66.332031 120.773438 C 67.246094 120.808594 67.851562 120.445312 67.933594 119.101562 C 67.976562 117.808594 67.488281 117.589844 66.304688 117.539062 L 65.410156 117.507812 "/>
<path style=" stroke:none;fill-rule:nonzero;fill:rgb(0%,37.64706%,68.627453%);fill-opacity:1;" d="M 362.570312 23.160156 L 345.671875 53.863281 C 339.292969 48.679688 331.503906 44.863281 321.566406 44.863281 C 298.050781 44.863281 288.496094 62.410156 288.496094 74.769531 C 288.496094 83.941406 294.5 97.480469 315.421875 97.480469 C 324.207031 97.480469 336.691406 91.363281 340.285156 88.582031 L 323.574219 124.199219 C 315.605469 125.789062 312.988281 126.777344 306.246094 126.984375 C 268.792969 128.105469 253.660156 105.074219 253.671875 81.542969 C 253.695312 50.4375 281.328125 12.601562 327.132812 12.601562 C 329.941406 12.601562 333.371094 13.574219 336.308594 14.652344 L 339.273438 10.855469 "/>
<path style=" stroke:none;fill-rule:nonzero;fill:rgb(0%,37.64706%,68.627453%);fill-opacity:1;" d="M 432.296875 11.816406 L 437.082031 123.402344 L 401.46875 123.402344 L 401.449219 104.265625 L 377.164062 104.265625 L 369.171875 123.402344 L 330.550781 123.402344 L 370.929688 43.722656 L 361.824219 43.660156 L 379.121094 11.816406 Z M 401.21875 45.953125 L 387.488281 78.410156 L 401.628906 78.410156 "/>
<path style=" stroke:none;fill-rule:nonzero;fill:rgb(0%,37.64706%,68.627453%);fill-opacity:1;" d="M 231.1875 11.816406 C 248.824219 11.917969 258.789062 21.5 258.789062 35.339844 C 258.789062 48.101562 248.277344 59.394531 236.742188 65.238281 C 248.621094 69.609375 249.648438 80.335938 249.648438 87.929688 C 249.648438 106.265625 231.261719 123.402344 207.367188 123.402344 L 155.25 123.402344 L 175.578125 44.832031 L 167.226562 44.78125 L 184.296875 11.816406 C 184.296875 11.816406 216.847656 11.71875 231.1875 11.816406 M 213.886719 57.058594 C 217.53125 57.058594 223.972656 56.132812 225.585938 49.066406 C 227.347656 41.394531 221.304688 41.191406 218.40625 41.191406 L 208.042969 41.144531 L 204.429688 57.058594 Z M 199.238281 76.777344 L 194.464844 95.117188 L 206.664062 95.117188 C 211.464844 95.117188 218.007812 92.730469 219.609375 86.765625 C 221.195312 80.777344 216.621094 76.777344 211.835938 76.777344 "/>
<path style=" stroke:none;fill-rule:nonzero;fill:rgb(0%,65.098041%,70.980394%);fill-opacity:1;" d="M 721.761719 122.453125 C 721.824219 122.246094 725.019531 104.363281 728.859375 82.714844 C 732.699219 61.066406 735.894531 43.132812 735.957031 42.863281 L 736.066406 42.371094 L 764.195312 42.371094 L 764.074219 42.972656 C 763.859375 44.007812 761.984375 55.414062 761.984375 55.671875 C 761.984375 55.804688 762.992188 55 764.226562 53.886719 C 771.757812 47.085938 779.492188 42.847656 786.582031 41.632812 C 791.019531 40.875 797.203125 41.320312 801.34375 42.699219 C 807.097656 44.617188 810.582031 47.410156 812.753906 51.851562 C 815.460938 57.386719 815.746094 63.214844 813.832031 73.992188 C 813.175781 77.695312 805.335938 122.699219 805.335938 122.769531 C 805.335938 122.808594 798.472656 122.835938 790.082031 122.835938 L 774.828125 122.835938 L 774.941406 122.347656 C 775.078125 121.769531 780.648438 92.292969 781.46875 87.835938 C 782.464844 82.40625 783.332031 75.894531 783.328125 73.882812 C 783.324219 70.832031 782.503906 68.429688 781.101562 67.378906 C 780.039062 66.578125 778.265625 65.742188 776.863281 65.375 C 773.371094 64.464844 768.640625 65.632812 765.851562 68.097656 C 763.714844 69.984375 761.328125 74.332031 760.144531 78.5 C 759.746094 79.914062 751.742188 122.027344 751.742188 122.726562 C 751.742188 122.785156 744.972656 122.835938 736.699219 122.835938 C 722.46875 122.835938 721.65625 122.816406 721.761719 122.453125 Z M 721.761719 122.453125 "/>
<path style=" stroke:none;fill-rule:nonzero;fill:rgb(0%,65.098041%,70.980394%);fill-opacity:1;" d="M 536.949219 122.78125 C 536.953125 122.753906 540.167969 104.671875 544.097656 82.605469 L 551.242188 42.480469 L 565.347656 42.425781 C 578.714844 42.371094 579.449219 42.390625 579.34375 42.753906 C 579.042969 43.816406 577.222656 55.503906 577.339844 55.621094 C 577.414062 55.695312 577.984375 55.257812 578.613281 54.652344 C 582.238281 51.125 587.605469 47.269531 592.019531 45.019531 C 597.171875 42.394531 601.546875 41.28125 606.71875 41.285156 C 617.640625 41.289062 625.550781 45.546875 628.582031 53.050781 C 630.664062 58.210938 630.8125 63.992188 629.109375 73.664062 C 627.003906 85.617188 620.597656 122.492188 620.597656 122.644531 C 620.597656 122.753906 614.027344 122.835938 605.332031 122.835938 L 590.0625 122.835938 L 590.1875 122.238281 C 590.773438 119.433594 596.570312 88.515625 597.066406 85.546875 C 598.257812 78.453125 598.648438 75.101562 598.535156 73.011719 C 598.34375 69.503906 597.289062 67.679688 594.703125 66.375 C 592.648438 65.335938 590.941406 64.980469 588.683594 65.125 C 583.285156 65.472656 579.769531 68.171875 577.015625 74.082031 C 575.480469 77.378906 574.9375 79.804688 570.933594 101.296875 C 568.773438 112.898438 567.007812 122.488281 567.007812 122.613281 C 567.007812 122.761719 562.105469 122.835938 551.972656 122.835938 C 543.707031 122.835938 536.945312 122.8125 536.949219 122.78125 Z M 536.949219 122.78125 "/>
<path style=" stroke:none;fill-rule:nonzero;fill:rgb(0%,65.098041%,70.980394%);fill-opacity:1;" d="M 497.339844 122.453125 C 497.394531 122.246094 500.515625 104.238281 504.277344 82.441406 L 511.117188 42.808594 L 540.460938 42.808594 L 540.339844 43.40625 C 540.269531 43.738281 537.21875 61.472656 533.5625 82.824219 C 529.902344 104.171875 526.855469 121.90625 526.789062 122.238281 L 526.667969 122.835938 L 511.957031 122.835938 C 498.050781 122.835938 497.246094 122.816406 497.339844 122.453125 Z M 497.339844 122.453125 "/>
<path style=" stroke:none;fill-rule:nonzero;fill:rgb(0%,65.098041%,70.980394%);fill-opacity:1;" d="M 449.039062 122.5625 C 449.101562 122.292969 451.3125 109.609375 453.945312 94.378906 C 456.582031 79.148438 458.792969 66.417969 458.863281 66.085938 L 458.984375 65.488281 L 447.589844 65.488281 L 447.710938 64.886719 C 447.78125 64.558594 448.625 59.675781 449.585938 54.039062 C 450.550781 48.402344 451.390625 43.519531 451.457031 43.191406 L 451.578125 42.589844 L 463.082031 42.589844 L 463.1875 42.101562 C 463.246094 41.828125 463.402344 41.019531 463.535156 40.300781 C 465.257812 31.019531 468.996094 22.6875 473.421875 18.265625 C 477.015625 14.671875 482.769531 12.148438 489.886719 11.042969 C 493.335938 10.507812 502.609375 10.503906 507.078125 11.035156 C 511.097656 11.515625 515.890625 12.277344 516.246094 12.496094 C 516.449219 12.625 515.757812 14.945312 513.476562 21.792969 L 510.433594 30.925781 L 507.183594 30.851562 C 501.300781 30.722656 498.894531 31.328125 496.855469 33.453125 C 495.152344 35.230469 494.554688 36.816406 493.710938 41.773438 L 493.570312 42.589844 L 500.988281 42.589844 C 507.488281 42.589844 508.402344 42.632812 508.402344 42.921875 C 508.402344 43.203125 504.929688 63.113281 504.570312 64.886719 L 504.449219 65.488281 L 489.34375 65.488281 L 484.042969 93.886719 C 481.128906 109.507812 478.695312 122.460938 478.636719 122.671875 C 478.535156 123.03125 477.636719 123.050781 463.726562 123.050781 L 448.921875 123.050781 Z M 449.039062 122.5625 "/>
<path style=" stroke:none;fill-rule:nonzero;fill:rgb(0%,65.098041%,70.980394%);fill-opacity:1;" d="M 648.710938 124.5625 C 643.550781 124.066406 640.199219 122.824219 636.390625 120 C 633.542969 117.886719 631.632812 115.710938 630.304688 113.058594 C 628.316406 109.101562 628.277344 102.6875 630.210938 97.15625 C 632.8125 89.691406 639.269531 83.550781 647.53125 80.679688 C 651.042969 79.457031 654.976562 78.554688 667.542969 76.074219 C 682.160156 73.191406 685.480469 72.433594 688.273438 71.347656 C 692.097656 69.859375 692.992188 68.902344 692.976562 66.316406 C 692.960938 63.929688 691.765625 62.097656 689.453125 60.914062 C 687.023438 59.675781 681.96875 59.351562 678.480469 60.214844 C 673.222656 61.511719 668.742188 64.5625 667.066406 67.980469 C 666.496094 69.148438 666.417969 69.214844 665.804688 69.113281 C 665.441406 69.050781 659.09375 68.289062 651.695312 67.417969 C 639.699219 66.003906 638.242188 65.789062 638.242188 65.453125 C 638.242188 65.246094 638.5 64.359375 638.816406 63.484375 C 640.9375 57.570312 645.195312 52.503906 651.664062 48.199219 C 657.488281 44.324219 662.890625 42.46875 671.59375 41.347656 C 675.242188 40.875 690.839844 40.8125 695.539062 41.25 C 701.289062 41.785156 708.210938 43.570312 712.082031 45.515625 C 715.570312 47.265625 718.617188 49.921875 719.859375 52.292969 C 721.695312 55.792969 722.695312 60.957031 722.460938 65.707031 C 722.1875 71.273438 721.472656 75.9375 718.195312 93.507812 C 715.789062 106.398438 715.367188 109.09375 715.210938 112.707031 C 715.078125 115.773438 715.40625 118.496094 716.234375 121.136719 C 716.472656 121.890625 716.664062 122.582031 716.667969 122.671875 C 716.667969 122.765625 710.308594 122.835938 702.535156 122.835938 L 688.398438 122.835938 L 687.949219 121.886719 C 687.394531 120.703125 686.882812 118.15625 686.636719 115.363281 C 686.53125 114.1875 686.394531 113.175781 686.328125 113.109375 C 686.265625 113.046875 685.257812 113.796875 684.09375 114.777344 C 679.949219 118.261719 676.488281 120.207031 671.453125 121.871094 C 664.332031 124.222656 655.734375 125.238281 648.710938 124.5625 Z M 674.296875 106.652344 C 676.503906 105.863281 679.539062 104.289062 681.082031 103.128906 C 681.816406 102.574219 683.261719 101.234375 684.292969 100.148438 C 686.503906 97.824219 687.777344 95.460938 688.652344 92.0625 C 689.207031 89.910156 689.9375 85.539062 689.769531 85.371094 C 689.683594 85.285156 686.171875 86.167969 676.039062 88.828125 C 666.207031 91.410156 661.449219 94.136719 660.359375 97.808594 C 659.96875 99.136719 659.925781 101.835938 660.28125 103.023438 C 660.632812 104.195312 661.832031 105.523438 663.136719 106.183594 C 664.914062 107.085938 666.550781 107.351562 669.832031 107.269531 C 672.292969 107.207031 673.023438 107.109375 674.296875 106.652344 Z M 674.296875 106.652344 "/>
<path style=" stroke:none;fill-rule:nonzero;fill:rgb(0%,65.098041%,70.980394%);fill-opacity:1;" d="M 942.472656 124.785156 C 935.789062 124.398438 930.117188 122.914062 924.949219 120.203125 C 919.589844 117.390625 914.699219 112.449219 912.035156 107.148438 C 910.535156 104.164062 908.941406 98.496094 909.4375 97.914062 C 909.558594 97.769531 914.515625 94.117188 920.453125 89.800781 C 926.386719 85.484375 931.222656 81.847656 931.195312 81.726562 C 931.167969 81.601562 927.664062 78.226562 923.410156 74.226562 C 919.15625 70.226562 915.492188 66.78125 915.269531 66.566406 C 914.867188 66.191406 914.878906 66.148438 915.691406 64.800781 C 920.566406 56.683594 931 48.367188 940.667969 44.890625 C 957.839844 38.714844 975.375 39.640625 988.222656 47.398438 C 996.59375 52.457031 1000.957031 60.175781 1001.84375 71.5 C 1002.171875 75.667969 1001.683594 81.507812 1000.460938 88.058594 L 1000.175781 89.582031 L 969.527344 89.636719 L 938.878906 89.695312 L 938.878906 91.882812 C 938.878906 94.96875 939.339844 97.015625 940.625 99.652344 C 941.5 101.433594 941.953125 102.089844 942.960938 102.992188 C 944.496094 104.367188 947.21875 105.726562 949.363281 106.183594 C 954.058594 107.1875 960.9375 105.269531 964.246094 102.035156 C 964.996094 101.304688 965.761719 100.476562 965.945312 100.199219 L 966.277344 99.695312 L 981.121094 100.765625 C 989.285156 101.355469 996.023438 101.898438 996.097656 101.972656 C 996.171875 102.046875 995.410156 103.257812 994.40625 104.664062 C 985.828125 116.667969 970.875 124.167969 954.453125 124.691406 C 947.121094 124.929688 945.21875 124.941406 942.472656 124.785156 Z M 971.421875 75.609375 C 971.675781 74.949219 971.546875 69.734375 971.242188 68.292969 C 970.464844 64.617188 968.101562 61.769531 964.945312 60.699219 C 961.75 59.613281 957.789062 59.609375 954.546875 60.691406 C 949.140625 62.492188 944.289062 68.082031 942.292969 74.808594 L 941.953125 75.953125 L 956.621094 75.953125 C 969.796875 75.953125 971.304688 75.917969 971.421875 75.609375 Z M 971.421875 75.609375 "/>
<path style=" stroke:none;fill-rule:nonzero;fill:rgb(0%,65.098041%,70.980394%);fill-opacity:1;" d="M 852.390625 124.78125 C 844.828125 124.339844 837.3125 122.609375 832.503906 120.191406 C 827.828125 117.84375 823.824219 114.085938 820.472656 108.898438 C 817.730469 104.65625 816.234375 99.375 816.234375 93.945312 C 816.230469 80.472656 819.796875 69.539062 827.183594 60.363281 C 829.199219 57.859375 832.328125 54.601562 834.292969 52.960938 C 843.246094 45.488281 857.277344 40.851562 870.949219 40.847656 C 880.617188 40.84375 890.039062 42.878906 895.851562 46.226562 C 901.507812 49.484375 906.488281 55.632812 908.589844 61.953125 C 909.714844 65.34375 910.359375 69.898438 910.027344 72.121094 L 909.878906 73.117188 L 880.761719 73.117188 L 880.675781 71.757812 C 880.554688 69.910156 879.867188 68.582031 878.015625 66.628906 C 876.179688 64.695312 875.335938 64.175781 872.761719 63.386719 C 871.007812 62.851562 870.464844 62.789062 867.640625 62.789062 C 864.917969 62.789062 864.1875 62.871094 862.347656 63.367188 C 858.804688 64.320312 857.164062 65.238281 854.894531 67.546875 C 852.160156 70.328125 850.476562 73.367188 848.683594 78.761719 C 847.46875 82.410156 846.953125 85.171875 846.796875 88.820312 C 846.648438 92.367188 846.945312 94.4375 847.996094 97.203125 C 850.144531 102.863281 858.832031 105.421875 866.835938 102.757812 C 869.859375 101.753906 871.335938 100.835938 873.652344 98.53125 C 875.875 96.316406 877.109375 94.558594 878.019531 92.320312 L 878.511719 91.109375 L 893.359375 91.050781 L 908.210938 90.996094 L 908.058594 91.597656 C 907.753906 92.824219 906.144531 96.703125 905.082031 98.78125 C 897.90625 112.765625 884.222656 121.714844 866.167969 124.238281 C 864.039062 124.535156 856.59375 125.0625 855.660156 124.980469 C 855.480469 124.964844 854.007812 124.875 852.390625 124.78125 Z M 852.390625 124.78125 "/>
</g>
</svg>
