<?xml version="1.0" encoding="UTF-8"?>
<svg width="100%" height="100%" viewBox="0 0 497 68" version="1.1" xmlns="http://www.w3.org/2000/svg" xmlns:xlink="http://www.w3.org/1999/xlink" xml:space="preserve" xmlns:serif="http://www.serif.com/" style="fill-rule:evenodd;clip-rule:evenodd;stroke-linejoin:round;stroke-miterlimit:2;">
<g id="surface1">
<path style=" stroke:none;fill-rule:nonzero;fill:rgb(0%,37.64706%,68.627453%);fill-opacity:1;" d="M 31.945312 51.65625 C 31.945312 48.945312 31.972656 41.695312 31.90625 40.800781 C 31.964844 30.011719 24.132812 22.402344 19.1875 22.996094 C 15.761719 23.292969 12.894531 24.691406 11.351562 28.714844 C 9.925781 32.460938 11.203125 37.449219 15.949219 38.617188 C 21.023438 39.875 23.988281 40.921875 26.132812 42.394531 C 28.761719 44.203125 30.910156 47.652344 30.964844 51.660156 "/>
<path style=" stroke:none;fill-rule:nonzero;fill:rgb(0%,37.64706%,68.627453%);fill-opacity:1;" d="M 33.96875 68.054688 C 25.019531 68.054688 15.820312 65.847656 6.636719 61.480469 L 6.410156 61.371094 L 6.300781 61.140625 C 2.179688 52.425781 0 42.890625 0 33.5625 C 0 24.25 2.089844 15.125 6.214844 6.421875 L 6.328125 6.191406 L 6.558594 6.074219 C 15.058594 2.042969 24.199219 0 33.738281 0 C 42.625 0 52.113281 2.273438 61.179688 6.585938 L 61.410156 6.691406 L 61.519531 6.925781 C 65.71875 15.804688 67.9375 25.332031 67.9375 34.507812 C 67.9375 43.644531 65.808594 52.777344 61.601562 61.648438 L 61.492188 61.878906 L 61.257812 61.988281 C 52.890625 65.957031 43.453125 68.054688 33.96875 68.054688 M 7.484375 60.285156 C 16.410156 64.492188 25.308594 66.613281 33.96875 66.613281 C 43.152344 66.613281 52.285156 64.605469 60.414062 60.792969 C 64.453125 52.195312 66.5 43.347656 66.5 34.507812 C 66.5 25.628906 64.363281 16.394531 60.324219 7.777344 C 51.527344 3.636719 42.339844 1.4375 33.738281 1.4375 C 24.5 1.4375 15.648438 3.402344 7.410156 7.273438 C 3.453125 15.710938 1.441406 24.550781 1.441406 33.5625 C 1.441406 42.59375 3.53125 51.832031 7.484375 60.285156 "/>
<path style=" stroke:none;fill-rule:nonzero;fill:rgb(0%,37.64706%,68.627453%);fill-opacity:1;" d="M 29.824219 51.660156 C 29.839844 48.183594 27.902344 45.109375 25.371094 43.457031 C 23.125 41.996094 20.109375 41.039062 15.242188 39.800781 C 13.738281 39.417969 12.167969 38.5625 11.679688 37.46875 C 10.390625 38.769531 10.15625 41.691406 10.382812 43.402344 C 10.648438 45.378906 12.953125 48.636719 16.425781 48.765625 C 18.546875 48.847656 21.226562 48.308594 22.511719 48.03125 C 24.730469 47.554688 28.242188 48.945312 28.800781 51.65625 "/>
<path style=" stroke:none;fill-rule:nonzero;fill:rgb(0%,37.64706%,68.627453%);fill-opacity:1;" d="M 33.738281 6.179688 C 27.851562 6.179688 22.765625 10.070312 22.78125 16.800781 C 22.800781 22.460938 27.34375 25.488281 28.964844 27.652344 C 31.417969 30.914062 32.742188 34.773438 32.878906 40.679688 C 32.988281 45.378906 32.980469 50.023438 33.003906 51.667969 L 34.304688 51.667969 C 34.28125 49.945312 34.222656 45.019531 34.292969 40.535156 C 34.378906 34.628906 35.753906 30.914062 38.203125 27.652344 C 39.839844 25.488281 44.378906 22.460938 44.390625 16.800781 C 44.414062 10.070312 39.328125 6.179688 33.445312 6.179688 "/>
<path style=" stroke:none;fill-rule:nonzero;fill:rgb(0%,37.64706%,68.627453%);fill-opacity:1;" d="M 35.230469 51.65625 C 35.230469 48.945312 35.203125 41.695312 35.265625 40.800781 C 35.210938 30.011719 43.035156 22.402344 47.988281 22.996094 C 51.410156 23.292969 54.277344 24.691406 55.820312 28.714844 C 57.25 32.460938 55.964844 37.449219 51.222656 38.617188 C 46.144531 39.875 43.183594 40.921875 41.035156 42.394531 C 38.410156 44.203125 36.414062 47.652344 36.351562 51.660156 "/>
<path style=" stroke:none;fill-rule:nonzero;fill:rgb(0%,37.64706%,68.627453%);fill-opacity:1;" d="M 37.351562 51.660156 C 37.332031 48.183594 39.269531 45.109375 41.796875 43.457031 C 44.050781 41.996094 47.070312 41.039062 51.929688 39.800781 C 53.4375 39.417969 55.007812 38.5625 55.488281 37.46875 C 56.78125 38.769531 57.015625 41.691406 56.789062 43.402344 C 56.519531 45.378906 54.21875 48.636719 50.753906 48.765625 C 48.632812 48.847656 45.9375 48.308594 44.65625 48.03125 C 42.449219 47.554688 38.929688 48.945312 38.367188 51.65625 "/>
<path style=" stroke:none;fill-rule:nonzero;fill:rgb(0%,37.64706%,68.627453%);fill-opacity:1;" d="M 39.167969 62.886719 L 38.414062 57.378906 L 40.234375 57.105469 C 40.675781 57.042969 41.214844 57.121094 41.429688 57.398438 C 41.667969 57.6875 41.742188 57.929688 41.789062 58.308594 C 41.855469 58.777344 41.722656 59.324219 41.191406 59.59375 L 41.191406 59.609375 C 41.78125 59.609375 42.140625 60.035156 42.242188 60.753906 C 42.257812 60.90625 42.304688 61.273438 42.257812 61.578125 C 42.136719 62.304688 41.707031 62.539062 40.976562 62.640625 Z M 40.339844 61.898438 C 40.554688 61.871094 40.773438 61.859375 40.945312 61.75 C 41.207031 61.578125 41.183594 61.210938 41.144531 60.941406 C 41.054688 60.34375 40.898438 60.113281 40.265625 60.207031 L 39.867188 60.269531 L 40.121094 61.929688 Z M 39.957031 59.355469 C 40.199219 59.316406 40.523438 59.289062 40.660156 59.058594 C 40.730469 58.90625 40.824219 58.785156 40.761719 58.445312 C 40.6875 58.042969 40.554688 57.792969 40.042969 57.890625 L 39.570312 57.964844 L 39.757812 59.375 "/>
<path style=" stroke:none;fill-rule:nonzero;fill:rgb(0%,37.64706%,68.627453%);fill-opacity:1;" d="M 47.046875 59.574219 C 47.058594 59.675781 47.078125 59.789062 47.082031 59.894531 C 47.230469 60.898438 47.046875 61.730469 45.917969 61.957031 C 44.253906 62.28125 43.933594 61.242188 43.640625 59.789062 L 43.484375 59.003906 C 43.253906 57.617188 43.15625 56.566406 44.78125 56.242188 C 45.695312 56.074219 46.300781 56.4375 46.554688 57.351562 C 46.59375 57.488281 46.640625 57.621094 46.660156 57.757812 L 45.664062 57.964844 C 45.546875 57.621094 45.394531 57.011719 44.945312 57.0625 C 44.140625 57.160156 44.40625 58.160156 44.492188 58.582031 L 44.789062 60.089844 C 44.878906 60.542969 45.058594 61.273438 45.753906 61.132812 C 46.320312 61.019531 46.074219 60.136719 46.023438 59.773438 "/>
<path style=" stroke:none;fill-rule:nonzero;fill:rgb(0%,37.64706%,68.627453%);fill-opacity:1;" d="M 48.644531 61.242188 L 48.300781 55.542969 L 49.640625 55.132812 L 52.445312 60.089844 L 51.394531 60.40625 L 50.726562 59.144531 L 49.558594 59.496094 L 49.707031 60.929688 Z M 49.457031 58.578125 L 50.304688 58.332031 L 49.179688 56.027344 "/>
<path style=" stroke:none;fill-rule:nonzero;fill:rgb(0%,37.64706%,68.627453%);fill-opacity:1;" d="M 15.574219 56.933594 C 15.992188 55.589844 16.367188 54.601562 17.964844 55.039062 C 18.824219 55.277344 19.351562 55.65625 19.328125 56.652344 C 19.324219 56.875 19.25 57.097656 19.203125 57.320312 L 18.207031 57.042969 C 18.339844 56.492188 18.421875 56.058594 17.746094 55.847656 C 16.960938 55.632812 16.773438 56.582031 16.664062 56.992188 L 16.257812 58.488281 C 16.132812 58.929688 15.976562 59.664062 16.664062 59.851562 C 17.234375 60.003906 17.578125 59.445312 17.785156 58.628906 L 17.085938 58.445312 L 17.328125 57.582031 L 18.964844 58.109375 L 18.1875 60.988281 L 17.433594 60.785156 L 17.605469 60.175781 L 17.582031 60.175781 C 17.234375 60.671875 16.8125 60.726562 16.441406 60.652344 C 14.804688 60.210938 14.976562 59.136719 15.367188 57.707031 "/>
<path style=" stroke:none;fill-rule:nonzero;fill:rgb(0%,37.64706%,68.627453%);fill-opacity:1;" d="M 21.667969 59.363281 L 21.175781 61.707031 L 20.066406 61.464844 L 21.246094 55.996094 L 23.140625 56.425781 C 24.246094 56.664062 24.582031 57.160156 24.425781 58.175781 C 24.335938 58.757812 24.046875 59.386719 23.347656 59.335938 L 23.339844 59.328125 C 23.933594 59.535156 23.984375 59.835938 23.878906 60.351562 C 23.835938 60.570312 23.527344 61.910156 23.738281 62.125 L 23.746094 62.289062 L 22.597656 61.988281 C 22.550781 61.617188 22.710938 60.953125 22.777344 60.582031 C 22.839844 60.257812 22.945312 59.796875 22.613281 59.625 C 22.355469 59.484375 22.257812 59.492188 21.964844 59.425781 Z M 21.855469 58.515625 L 22.605469 58.71875 C 23.058594 58.785156 23.308594 58.550781 23.398438 58 C 23.480469 57.496094 23.375 57.300781 22.96875 57.203125 L 22.167969 57.039062 "/>
<path style=" stroke:none;fill-rule:nonzero;fill:rgb(0%,37.64706%,68.627453%);fill-opacity:1;" d="M 28.785156 57.21875 L 29.882812 57.347656 L 29.410156 61.191406 C 29.183594 62.410156 28.710938 62.945312 27.371094 62.777344 C 26.011719 62.605469 25.6875 61.984375 25.769531 60.753906 L 26.246094 56.914062 L 27.351562 57.039062 L 26.875 60.796875 C 26.828125 61.203125 26.730469 61.808594 27.457031 61.878906 C 28.097656 61.929688 28.246094 61.503906 28.316406 60.972656 "/>
<path style=" stroke:none;fill-rule:nonzero;fill:rgb(0%,37.64706%,68.627453%);fill-opacity:1;" d="M 31.09375 62.988281 L 31.425781 57.488281 L 33.535156 57.582031 C 34.53125 57.628906 34.792969 58.445312 34.761719 59.222656 C 34.730469 59.695312 34.582031 60.222656 34.171875 60.511719 C 33.835938 60.753906 33.402344 60.8125 33 60.792969 L 32.3125 60.753906 L 32.175781 63.058594 Z M 32.34375 59.914062 L 32.902344 59.945312 C 33.355469 59.964844 33.65625 59.785156 33.695312 59.117188 C 33.71875 58.476562 33.476562 58.367188 32.886719 58.339844 L 32.445312 58.324219 "/>
<path style=" stroke:none;fill-rule:nonzero;fill:rgb(0%,37.64706%,68.627453%);fill-opacity:1;" d="M 179.835938 11.496094 L 171.457031 26.734375 C 168.292969 24.160156 164.429688 22.265625 159.5 22.265625 C 147.835938 22.265625 143.097656 30.976562 143.097656 37.113281 C 143.097656 41.664062 146.074219 48.382812 156.453125 48.382812 C 160.808594 48.382812 167.003906 45.347656 168.785156 43.96875 L 160.496094 61.644531 C 156.542969 62.4375 155.246094 62.925781 151.898438 63.027344 C 133.324219 63.585938 125.816406 52.152344 125.824219 40.472656 C 125.835938 25.035156 139.539062 6.253906 162.261719 6.253906 C 163.652344 6.253906 165.355469 6.738281 166.8125 7.273438 L 168.28125 5.386719 "/>
<path style=" stroke:none;fill-rule:nonzero;fill:rgb(0%,37.64706%,68.627453%);fill-opacity:1;" d="M 214.421875 5.867188 L 216.796875 61.25 L 199.132812 61.25 L 199.121094 51.753906 L 187.078125 51.753906 L 183.113281 61.25 L 163.957031 61.25 L 183.984375 21.699219 L 179.46875 21.671875 L 188.046875 5.867188 Z M 199.007812 22.808594 L 192.195312 38.917969 L 199.210938 38.917969 "/>
<path style=" stroke:none;fill-rule:nonzero;fill:rgb(0%,37.64706%,68.627453%);fill-opacity:1;" d="M 114.671875 5.867188 C 123.417969 5.914062 128.363281 10.671875 128.363281 17.542969 C 128.363281 23.875 123.148438 29.480469 117.425781 32.378906 C 123.316406 34.550781 123.828125 39.875 123.828125 43.644531 C 123.828125 52.746094 114.707031 61.25 102.855469 61.25 L 77.003906 61.25 L 87.089844 22.253906 L 82.945312 22.226562 L 91.414062 5.867188 C 91.414062 5.867188 107.558594 5.816406 114.671875 5.867188 M 106.089844 28.320312 C 107.898438 28.320312 111.09375 27.863281 111.890625 24.355469 C 112.765625 20.546875 109.769531 20.445312 108.332031 20.445312 L 103.191406 20.421875 L 101.398438 28.320312 Z M 98.824219 38.109375 L 96.457031 47.210938 L 102.507812 47.210938 C 104.890625 47.210938 108.132812 46.027344 108.929688 43.066406 C 109.714844 40.09375 107.445312 38.109375 105.074219 38.109375 "/>
<path style=" stroke:none;fill-rule:nonzero;fill:rgb(0%,65.098041%,70.980394%);fill-opacity:1;" d="M 358 60.78125 C 358.03125 60.675781 359.613281 51.800781 361.519531 41.054688 C 363.425781 30.308594 365.007812 21.410156 365.039062 21.273438 L 365.09375 21.03125 L 379.046875 21.03125 L 378.984375 21.328125 C 378.882812 21.84375 377.949219 27.503906 377.949219 27.632812 C 377.949219 27.699219 378.449219 27.300781 379.0625 26.746094 C 382.796875 23.371094 386.632812 21.265625 390.152344 20.664062 C 392.351562 20.289062 395.417969 20.511719 397.472656 21.195312 C 400.328125 22.144531 402.054688 23.53125 403.132812 25.738281 C 404.476562 28.484375 404.617188 31.378906 403.667969 36.726562 C 403.339844 38.5625 399.453125 60.902344 399.453125 60.9375 C 399.453125 60.957031 396.046875 60.96875 391.886719 60.96875 L 384.320312 60.96875 L 384.378906 60.726562 C 384.445312 60.441406 387.207031 45.808594 387.613281 43.597656 C 388.109375 40.902344 388.539062 37.671875 388.539062 36.671875 C 388.535156 35.15625 388.128906 33.964844 387.433594 33.441406 C 386.90625 33.046875 386.027344 32.628906 385.332031 32.449219 C 383.597656 31.996094 381.253906 32.578125 379.871094 33.800781 C 378.808594 34.734375 377.625 36.894531 377.039062 38.964844 C 376.839844 39.664062 372.871094 60.566406 372.871094 60.914062 C 372.871094 60.945312 369.511719 60.96875 365.40625 60.96875 C 358.351562 60.96875 357.949219 60.960938 358 60.78125 Z M 358 60.78125 "/>
<path style=" stroke:none;fill-rule:nonzero;fill:rgb(0%,65.098041%,70.980394%);fill-opacity:1;" d="M 266.332031 60.941406 C 266.332031 60.929688 267.929688 51.953125 269.875 41 L 273.421875 21.085938 L 280.417969 21.058594 C 287.046875 21.03125 287.410156 21.039062 287.359375 21.21875 C 287.210938 21.746094 286.304688 27.550781 286.363281 27.609375 C 286.402344 27.644531 286.6875 27.429688 286.996094 27.125 C 288.792969 25.375 291.457031 23.460938 293.648438 22.34375 C 296.203125 21.042969 298.371094 20.488281 300.9375 20.492188 C 306.355469 20.492188 310.277344 22.609375 311.78125 26.332031 C 312.8125 28.894531 312.886719 31.761719 312.042969 36.5625 C 311 42.496094 307.820312 60.800781 307.820312 60.875 C 307.820312 60.929688 304.5625 60.96875 300.25 60.96875 L 292.675781 60.96875 L 292.738281 60.671875 C 293.027344 59.28125 295.902344 43.933594 296.148438 42.460938 C 296.738281 38.941406 296.933594 37.277344 296.878906 36.238281 C 296.785156 34.5 296.261719 33.59375 294.976562 32.945312 C 293.957031 32.429688 293.109375 32.253906 291.992188 32.324219 C 289.316406 32.496094 287.570312 33.835938 286.203125 36.769531 C 285.441406 38.40625 285.175781 39.609375 283.1875 50.277344 C 282.117188 56.035156 281.238281 60.796875 281.238281 60.859375 C 281.238281 60.933594 278.808594 60.96875 273.785156 60.96875 C 269.683594 60.96875 266.328125 60.957031 266.332031 60.941406 Z M 266.332031 60.941406 "/>
<path style=" stroke:none;fill-rule:nonzero;fill:rgb(0%,65.098041%,70.980394%);fill-opacity:1;" d="M 246.683594 60.78125 C 246.710938 60.675781 248.261719 51.738281 250.125 40.917969 L 253.519531 21.246094 L 268.074219 21.246094 L 268.011719 21.546875 C 267.976562 21.710938 266.464844 30.511719 264.652344 41.109375 C 262.835938 51.707031 261.324219 60.507812 261.292969 60.671875 L 261.230469 60.96875 L 253.933594 60.96875 C 247.039062 60.96875 246.640625 60.960938 246.683594 60.78125 Z M 246.683594 60.78125 "/>
<path style=" stroke:none;fill-rule:nonzero;fill:rgb(0%,65.098041%,70.980394%);fill-opacity:1;" d="M 222.726562 60.835938 C 222.757812 60.699219 223.855469 54.40625 225.160156 46.84375 C 226.46875 39.285156 227.566406 32.964844 227.597656 32.800781 L 227.660156 32.503906 L 222.007812 32.503906 L 222.070312 32.207031 C 222.101562 32.042969 222.519531 29.621094 223 26.820312 C 223.476562 24.023438 223.894531 21.601562 223.925781 21.4375 L 223.988281 21.140625 L 229.691406 21.140625 L 229.746094 20.894531 C 229.773438 20.761719 229.851562 20.359375 229.917969 20.003906 C 230.773438 15.398438 232.625 11.261719 234.820312 9.066406 C 236.605469 7.285156 239.457031 6.03125 242.988281 5.480469 C 244.699219 5.214844 249.296875 5.210938 251.515625 5.476562 C 253.507812 5.714844 255.886719 6.09375 256.0625 6.203125 C 256.164062 6.265625 255.820312 7.417969 254.6875 10.816406 L 253.179688 15.347656 L 251.566406 15.3125 C 248.648438 15.25 247.457031 15.550781 246.445312 16.605469 C 245.601562 17.488281 245.304688 18.273438 244.882812 20.734375 L 244.816406 21.140625 L 248.492188 21.140625 C 251.71875 21.140625 252.171875 21.160156 252.171875 21.304688 C 252.171875 21.445312 250.449219 31.324219 250.269531 32.207031 L 250.210938 32.503906 L 242.71875 32.503906 L 240.089844 46.601562 C 238.644531 54.355469 237.4375 60.785156 237.40625 60.886719 C 237.355469 61.066406 236.914062 61.078125 230.011719 61.078125 L 222.667969 61.078125 L 222.726562 60.832031 Z M 222.726562 60.835938 "/>
<path style=" stroke:none;fill-rule:nonzero;fill:rgb(0%,65.098041%,70.980394%);fill-opacity:1;" d="M 321.765625 61.828125 C 319.207031 61.578125 317.542969 60.964844 315.65625 59.5625 C 314.242188 58.511719 313.296875 57.433594 312.636719 56.117188 C 311.652344 54.152344 311.632812 50.96875 312.589844 48.222656 C 313.878906 44.519531 317.082031 41.46875 321.179688 40.042969 C 322.921875 39.4375 324.875 38.988281 331.105469 37.757812 C 338.355469 36.328125 340.003906 35.953125 341.390625 35.414062 C 343.285156 34.675781 343.730469 34.199219 343.722656 32.914062 C 343.714844 31.730469 343.121094 30.820312 341.972656 30.234375 C 340.769531 29.621094 338.261719 29.457031 336.53125 29.886719 C 333.921875 30.53125 331.703125 32.046875 330.871094 33.742188 C 330.585938 34.320312 330.550781 34.355469 330.242188 34.304688 C 330.066406 34.273438 326.917969 33.894531 323.246094 33.460938 C 317.296875 32.761719 316.574219 32.65625 316.574219 32.488281 C 316.574219 32.386719 316.703125 31.945312 316.855469 31.511719 C 317.910156 28.574219 320.023438 26.058594 323.230469 23.925781 C 326.121094 22 328.800781 21.078125 333.117188 20.523438 C 334.925781 20.289062 342.660156 20.257812 344.992188 20.472656 C 347.84375 20.738281 351.277344 21.625 353.199219 22.589844 C 354.929688 23.460938 356.441406 24.777344 357.058594 25.957031 C 357.964844 27.691406 358.464844 30.257812 358.347656 32.613281 C 358.210938 35.378906 357.855469 37.691406 356.230469 46.414062 C 355.035156 52.8125 354.828125 54.148438 354.75 55.941406 C 354.683594 57.464844 354.847656 58.816406 355.257812 60.125 C 355.375 60.5 355.472656 60.84375 355.472656 60.890625 C 355.472656 60.933594 352.320312 60.96875 348.460938 60.96875 L 341.449219 60.96875 L 341.230469 60.496094 C 340.953125 59.910156 340.699219 58.648438 340.578125 57.261719 C 340.523438 56.675781 340.457031 56.175781 340.425781 56.144531 C 340.394531 56.109375 339.894531 56.484375 339.316406 56.96875 C 337.261719 58.699219 335.542969 59.664062 333.046875 60.488281 C 329.515625 61.65625 325.25 62.164062 321.765625 61.828125 Z M 334.457031 52.9375 C 335.550781 52.546875 337.058594 51.761719 337.820312 51.1875 C 338.1875 50.914062 338.902344 50.246094 339.414062 49.707031 C 340.511719 48.554688 341.144531 47.382812 341.578125 45.695312 C 341.851562 44.625 342.214844 42.457031 342.132812 42.375 C 342.085938 42.332031 340.347656 42.769531 335.320312 44.089844 C 330.445312 45.371094 328.085938 46.722656 327.542969 48.546875 C 327.347656 49.207031 327.328125 50.546875 327.503906 51.136719 C 327.679688 51.71875 328.273438 52.375 328.921875 52.703125 C 329.804688 53.152344 330.613281 53.285156 332.242188 53.242188 C 333.460938 53.214844 333.824219 53.164062 334.457031 52.9375 Z M 334.457031 52.9375 "/>
<path style=" stroke:none;fill-rule:nonzero;fill:rgb(0%,65.098041%,70.980394%);fill-opacity:1;" d="M 467.472656 61.9375 C 464.160156 61.746094 461.34375 61.007812 458.78125 59.664062 C 456.125 58.269531 453.699219 55.8125 452.375 53.183594 C 451.632812 51.703125 450.84375 48.890625 451.085938 48.597656 C 451.148438 48.527344 453.605469 46.714844 456.550781 44.574219 C 459.496094 42.429688 461.894531 40.625 461.878906 40.566406 C 461.867188 40.503906 460.128906 38.828125 458.019531 36.84375 C 455.910156 34.855469 454.089844 33.144531 453.980469 33.039062 C 453.78125 32.855469 453.789062 32.832031 454.1875 32.164062 C 456.609375 28.136719 461.785156 24.007812 466.578125 22.28125 C 475.097656 19.214844 483.792969 19.675781 490.164062 23.527344 C 494.320312 26.039062 496.484375 29.867188 496.921875 35.488281 C 497.085938 37.558594 496.84375 40.457031 496.238281 43.707031 L 496.097656 44.464844 L 465.691406 44.519531 L 465.691406 45.605469 C 465.691406 47.136719 465.917969 48.15625 466.558594 49.460938 C 466.992188 50.347656 467.21875 50.671875 467.71875 51.121094 C 468.476562 51.804688 469.828125 52.476562 470.890625 52.703125 C 473.21875 53.203125 476.632812 52.25 478.273438 50.644531 C 478.648438 50.28125 479.023438 49.871094 479.117188 49.734375 L 479.28125 49.484375 L 486.644531 50.015625 C 490.691406 50.308594 494.035156 50.578125 494.070312 50.613281 C 494.109375 50.652344 493.730469 51.25 493.234375 51.949219 C 488.980469 57.910156 481.5625 61.628906 473.417969 61.890625 C 469.777344 62.007812 468.835938 62.015625 467.472656 61.9375 Z M 481.832031 37.527344 C 481.960938 37.203125 481.894531 34.613281 481.742188 33.898438 C 481.359375 32.074219 480.1875 30.660156 478.621094 30.128906 C 477.035156 29.589844 475.070312 29.585938 473.460938 30.125 C 470.78125 31.015625 468.375 33.792969 467.382812 37.132812 L 467.214844 37.699219 L 474.492188 37.699219 C 481.027344 37.699219 481.773438 37.683594 481.832031 37.527344 Z M 481.832031 37.527344 "/>
<path style=" stroke:none;fill-rule:nonzero;fill:rgb(0%,65.098041%,70.980394%);fill-opacity:1;" d="M 422.792969 61.933594 C 419.039062 61.71875 415.3125 60.855469 412.929688 59.65625 C 410.609375 58.492188 408.625 56.628906 406.960938 54.050781 C 405.601562 51.945312 404.859375 49.324219 404.859375 46.628906 C 404.855469 39.941406 406.625 34.515625 410.289062 29.960938 C 411.289062 28.71875 412.84375 27.101562 413.816406 26.289062 C 418.257812 22.578125 425.214844 20.277344 432 20.273438 C 436.792969 20.273438 441.46875 21.28125 444.351562 22.945312 C 447.15625 24.5625 449.625 27.613281 450.667969 30.75 C 451.226562 32.433594 451.546875 34.695312 451.378906 35.796875 L 451.304688 36.292969 L 436.867188 36.292969 L 436.820312 35.617188 C 436.761719 34.699219 436.421875 34.039062 435.503906 33.070312 C 434.59375 32.113281 434.171875 31.851562 432.894531 31.460938 C 432.027344 31.195312 431.757812 31.164062 430.355469 31.167969 C 429.003906 31.167969 428.644531 31.207031 427.730469 31.453125 C 425.976562 31.925781 425.160156 32.382812 424.035156 33.527344 C 422.679688 34.910156 421.84375 36.417969 420.953125 39.09375 C 420.351562 40.902344 420.09375 42.273438 420.019531 44.085938 C 419.945312 45.847656 420.089844 46.875 420.613281 48.246094 C 421.679688 51.054688 425.988281 52.328125 429.957031 51.003906 C 431.457031 50.503906 432.1875 50.050781 433.335938 48.90625 C 434.441406 47.804688 435.054688 46.933594 435.503906 45.824219 L 435.75 45.222656 L 443.113281 45.195312 L 450.480469 45.167969 L 450.40625 45.464844 C 450.253906 46.074219 449.457031 48 448.925781 49.027344 C 445.367188 55.972656 438.582031 60.414062 429.625 61.664062 C 428.570312 61.8125 424.875 62.074219 424.414062 62.035156 C 424.324219 62.027344 423.59375 61.980469 422.792969 61.933594 Z M 422.792969 61.933594 "/>
</g>
</svg>
