<?xml version="1.0" encoding="UTF-8"?>
<svg width="100%" height="100%" viewBox="0 0 1200 359" version="1.1" xmlns="http://www.w3.org/2000/svg" xmlns:xlink="http://www.w3.org/1999/xlink" xml:space="preserve" xmlns:serif="http://www.serif.com/" style="fill-rule:evenodd;clip-rule:evenodd;stroke-linejoin:round;stroke-miterlimit:2;">
<g id="surface1">
<path style=" stroke:none;fill-rule:nonzero;fill:rgb(0%,37.64706%,68.627453%);fill-opacity:1;" d="M 9.832031 15.953125 C 9.832031 15.117188 9.84375 12.875 9.824219 12.601562 C 9.839844 9.269531 7.429688 6.917969 5.90625 7.101562 C 4.851562 7.195312 3.96875 7.625 3.496094 8.867188 C 3.054688 10.023438 3.449219 11.566406 4.910156 11.925781 C 6.472656 12.316406 7.386719 12.636719 8.046875 13.09375 C 8.855469 13.652344 9.515625 14.714844 9.53125 15.953125 "/>
<path style=" stroke:none;fill-rule:nonzero;fill:rgb(0%,37.64706%,68.627453%);fill-opacity:1;" d="M 10.457031 21.015625 C 7.703125 21.015625 4.871094 20.335938 2.042969 18.988281 L 1.972656 18.953125 L 1.941406 18.882812 C 0.671875 16.191406 0 13.246094 0 10.367188 C 0 7.488281 0.644531 4.671875 1.914062 1.984375 L 1.949219 1.910156 L 2.019531 1.875 C 4.636719 0.628906 7.449219 0 10.386719 0 C 13.121094 0 16.042969 0.703125 18.832031 2.035156 L 18.90625 2.066406 L 18.9375 2.140625 C 20.230469 4.878906 20.914062 7.824219 20.914062 10.65625 C 20.914062 13.476562 20.257812 16.296875 18.964844 19.039062 L 18.929688 19.109375 L 18.859375 19.144531 C 16.28125 20.367188 13.375 21.015625 10.457031 21.015625 M 2.304688 18.617188 C 5.050781 19.917969 7.792969 20.570312 10.457031 20.570312 C 13.285156 20.570312 16.097656 19.949219 18.597656 18.773438 C 19.84375 16.121094 20.472656 13.386719 20.472656 10.65625 C 20.472656 7.914062 19.816406 5.0625 18.570312 2.402344 C 15.863281 1.121094 13.035156 0.445312 10.386719 0.445312 C 7.542969 0.445312 4.816406 1.050781 2.28125 2.246094 C 1.0625 4.851562 0.441406 7.582031 0.441406 10.367188 C 0.441406 13.15625 1.085938 16.007812 2.304688 18.617188 "/>
<path style=" stroke:none;fill-rule:nonzero;fill:rgb(0%,37.64706%,68.627453%);fill-opacity:1;" d="M 9.179688 15.953125 C 9.1875 14.878906 8.589844 13.929688 7.808594 13.421875 C 7.117188 12.96875 6.191406 12.671875 4.691406 12.292969 C 4.230469 12.171875 3.746094 11.910156 3.59375 11.570312 C 3.199219 11.972656 3.128906 12.875 3.195312 13.402344 C 3.277344 14.015625 3.988281 15.019531 5.058594 15.058594 C 5.710938 15.085938 6.535156 14.917969 6.929688 14.832031 C 7.613281 14.6875 8.695312 15.117188 8.867188 15.953125 "/>
<path style=" stroke:none;fill-rule:nonzero;fill:rgb(0%,37.64706%,68.627453%);fill-opacity:1;" d="M 10.386719 1.910156 C 8.574219 1.910156 7.007812 3.109375 7.011719 5.1875 C 7.019531 6.9375 8.417969 7.871094 8.917969 8.539062 C 9.671875 9.546875 10.078125 10.738281 10.121094 12.5625 C 10.15625 14.015625 10.152344 15.449219 10.160156 15.957031 L 10.5625 15.957031 C 10.554688 15.425781 10.535156 13.902344 10.554688 12.519531 C 10.582031 10.695312 11.007812 9.546875 11.761719 8.539062 C 12.265625 7.871094 13.664062 6.9375 13.664062 5.1875 C 13.671875 3.109375 12.109375 1.910156 10.296875 1.910156 "/>
<path style=" stroke:none;fill-rule:nonzero;fill:rgb(0%,37.64706%,68.627453%);fill-opacity:1;" d="M 10.847656 15.953125 C 10.847656 15.117188 10.835938 12.875 10.855469 12.601562 C 10.839844 9.269531 13.25 6.917969 14.773438 7.101562 C 15.828125 7.195312 16.710938 7.625 17.183594 8.867188 C 17.625 10.023438 17.230469 11.566406 15.769531 11.925781 C 14.207031 12.316406 13.292969 12.636719 12.632812 13.09375 C 11.824219 13.652344 11.210938 14.714844 11.191406 15.953125 "/>
<path style=" stroke:none;fill-rule:nonzero;fill:rgb(0%,37.64706%,68.627453%);fill-opacity:1;" d="M 11.5 15.953125 C 11.492188 14.878906 12.089844 13.929688 12.867188 13.421875 C 13.5625 12.96875 14.492188 12.671875 15.988281 12.292969 C 16.449219 12.171875 16.933594 11.910156 17.082031 11.570312 C 17.480469 11.972656 17.550781 12.875 17.480469 13.402344 C 17.398438 14.015625 16.691406 15.019531 15.625 15.058594 C 14.972656 15.085938 14.140625 14.917969 13.746094 14.832031 C 13.066406 14.6875 11.984375 15.117188 11.8125 15.953125 "/>
<path style=" stroke:none;fill-rule:nonzero;fill:rgb(0%,37.64706%,68.627453%);fill-opacity:1;" d="M 12.058594 19.421875 L 11.824219 17.71875 L 12.386719 17.636719 C 12.523438 17.617188 12.6875 17.640625 12.753906 17.726562 C 12.828125 17.816406 12.851562 17.890625 12.863281 18.007812 C 12.886719 18.152344 12.84375 18.320312 12.679688 18.402344 L 12.679688 18.410156 C 12.863281 18.410156 12.972656 18.539062 13.003906 18.761719 C 13.007812 18.808594 13.023438 18.921875 13.007812 19.015625 C 12.972656 19.242188 12.839844 19.3125 12.613281 19.34375 Z M 12.417969 19.117188 C 12.484375 19.105469 12.550781 19.101562 12.605469 19.070312 C 12.683594 19.015625 12.675781 18.902344 12.667969 18.820312 C 12.636719 18.636719 12.589844 18.566406 12.394531 18.59375 L 12.273438 18.613281 L 12.351562 19.125 Z M 12.300781 18.332031 C 12.375 18.320312 12.476562 18.308594 12.515625 18.238281 C 12.539062 18.191406 12.566406 18.152344 12.550781 18.050781 C 12.527344 17.925781 12.484375 17.847656 12.328125 17.878906 L 12.179688 17.902344 L 12.238281 18.335938 "/>
<path style=" stroke:none;fill-rule:nonzero;fill:rgb(0%,37.64706%,68.627453%);fill-opacity:1;" d="M 14.484375 18.398438 C 14.488281 18.429688 14.492188 18.464844 14.496094 18.496094 C 14.539062 18.808594 14.484375 19.0625 14.136719 19.132812 C 13.625 19.234375 13.523438 18.914062 13.433594 18.464844 L 13.386719 18.222656 C 13.316406 17.792969 13.285156 17.46875 13.785156 17.367188 C 14.066406 17.316406 14.253906 17.429688 14.332031 17.710938 C 14.34375 17.753906 14.359375 17.796875 14.363281 17.835938 L 14.058594 17.902344 C 14.023438 17.796875 13.976562 17.605469 13.835938 17.621094 C 13.589844 17.652344 13.671875 17.960938 13.695312 18.089844 L 13.789062 18.554688 C 13.816406 18.699219 13.871094 18.921875 14.085938 18.878906 C 14.257812 18.84375 14.183594 18.570312 14.167969 18.460938 "/>
<path style=" stroke:none;fill-rule:nonzero;fill:rgb(0%,37.64706%,68.627453%);fill-opacity:1;" d="M 14.976562 18.914062 L 14.871094 17.152344 L 15.28125 17.027344 L 16.144531 18.558594 L 15.820312 18.65625 L 15.617188 18.265625 L 15.257812 18.375 L 15.300781 18.816406 Z M 15.226562 18.089844 L 15.484375 18.015625 L 15.140625 17.300781 "/>
<path style=" stroke:none;fill-rule:nonzero;fill:rgb(0%,37.64706%,68.627453%);fill-opacity:1;" d="M 4.792969 17.582031 C 4.921875 17.167969 5.039062 16.863281 5.53125 16.996094 C 5.792969 17.070312 5.957031 17.1875 5.949219 17.496094 C 5.949219 17.5625 5.925781 17.632812 5.910156 17.703125 L 5.605469 17.617188 C 5.644531 17.445312 5.671875 17.3125 5.460938 17.246094 C 5.222656 17.179688 5.164062 17.472656 5.128906 17.601562 L 5.003906 18.0625 C 4.964844 18.199219 4.917969 18.425781 5.128906 18.484375 C 5.304688 18.53125 5.410156 18.359375 5.476562 18.105469 L 5.261719 18.050781 L 5.335938 17.78125 L 5.839844 17.945312 L 5.597656 18.835938 L 5.367188 18.769531 L 5.417969 18.582031 L 5.414062 18.582031 C 5.304688 18.738281 5.175781 18.753906 5.0625 18.730469 C 4.558594 18.59375 4.609375 18.261719 4.730469 17.820312 "/>
<path style=" stroke:none;fill-rule:nonzero;fill:rgb(0%,37.64706%,68.627453%);fill-opacity:1;" d="M 6.671875 18.332031 L 6.519531 19.054688 L 6.175781 18.980469 L 6.539062 17.292969 L 7.125 17.425781 C 7.464844 17.5 7.566406 17.652344 7.519531 17.964844 C 7.492188 18.144531 7.402344 18.339844 7.1875 18.324219 L 7.183594 18.320312 C 7.367188 18.386719 7.382812 18.476562 7.351562 18.636719 C 7.335938 18.707031 7.242188 19.117188 7.308594 19.1875 L 7.308594 19.234375 L 6.957031 19.144531 C 6.941406 19.027344 6.992188 18.824219 7.011719 18.710938 C 7.03125 18.609375 7.0625 18.464844 6.960938 18.414062 C 6.882812 18.371094 6.851562 18.371094 6.761719 18.351562 Z M 6.730469 18.070312 L 6.957031 18.132812 C 7.097656 18.152344 7.175781 18.082031 7.203125 17.910156 C 7.226562 17.757812 7.195312 17.695312 7.070312 17.664062 L 6.824219 17.613281 "/>
<path style=" stroke:none;fill-rule:nonzero;fill:rgb(0%,37.64706%,68.627453%);fill-opacity:1;" d="M 8.863281 17.671875 L 9.199219 17.710938 L 9.054688 18.898438 C 8.984375 19.273438 8.839844 19.4375 8.425781 19.386719 C 8.007812 19.332031 7.90625 19.140625 7.933594 18.761719 L 8.078125 17.574219 L 8.421875 17.613281 L 8.273438 18.773438 C 8.257812 18.902344 8.230469 19.085938 8.453125 19.109375 C 8.648438 19.125 8.695312 18.992188 8.71875 18.828125 "/>
<path style=" stroke:none;fill-rule:nonzero;fill:rgb(0%,37.64706%,68.627453%);fill-opacity:1;" d="M 9.574219 19.453125 L 9.675781 17.753906 L 10.324219 17.78125 C 10.628906 17.796875 10.710938 18.050781 10.699219 18.289062 C 10.691406 18.433594 10.644531 18.597656 10.519531 18.6875 C 10.414062 18.761719 10.28125 18.78125 10.160156 18.773438 L 9.945312 18.761719 L 9.90625 19.472656 Z M 9.957031 18.503906 L 10.128906 18.511719 C 10.269531 18.519531 10.359375 18.460938 10.371094 18.257812 C 10.378906 18.058594 10.304688 18.023438 10.125 18.015625 L 9.988281 18.011719 "/>
<path style=" stroke:none;fill-rule:nonzero;fill:rgb(0%,37.64706%,68.627453%);fill-opacity:1;" d="M 55.363281 3.550781 L 52.78125 8.257812 C 51.808594 7.460938 50.617188 6.875 49.101562 6.875 C 45.511719 6.875 44.050781 9.566406 44.050781 11.460938 C 44.050781 12.867188 44.96875 14.941406 48.164062 14.941406 C 49.503906 14.941406 51.410156 14.003906 51.960938 13.578125 L 49.40625 19.039062 C 48.191406 19.28125 47.792969 19.433594 46.761719 19.464844 C 41.042969 19.636719 38.734375 16.105469 38.734375 12.5 C 38.738281 7.730469 42.957031 1.933594 49.953125 1.933594 C 50.378906 1.933594 50.902344 2.082031 51.351562 2.246094 L 51.804688 1.664062 "/>
<path style=" stroke:none;fill-rule:nonzero;fill:rgb(0%,37.64706%,68.627453%);fill-opacity:1;" d="M 66.007812 1.8125 L 66.738281 18.914062 L 61.300781 18.914062 L 61.300781 15.980469 L 57.589844 15.980469 L 56.371094 18.914062 L 50.472656 18.914062 L 56.640625 6.703125 L 55.25 6.691406 L 57.890625 1.8125 Z M 61.261719 7.042969 L 59.167969 12.019531 L 61.328125 12.019531 "/>
<path style=" stroke:none;fill-rule:nonzero;fill:rgb(0%,37.64706%,68.627453%);fill-opacity:1;" d="M 35.300781 1.8125 C 37.992188 1.828125 39.515625 3.296875 39.515625 5.417969 C 39.515625 7.375 37.910156 9.105469 36.148438 10 C 37.964844 10.667969 38.121094 12.316406 38.121094 13.476562 C 38.121094 16.289062 35.3125 18.914062 31.664062 18.914062 L 23.707031 18.914062 L 26.808594 6.871094 L 25.535156 6.863281 L 28.140625 1.8125 C 28.140625 1.8125 33.109375 1.796875 35.300781 1.8125 M 32.660156 8.746094 C 33.214844 8.746094 34.199219 8.605469 34.445312 7.519531 C 34.714844 6.34375 33.792969 6.3125 33.347656 6.3125 L 31.765625 6.308594 L 31.214844 8.746094 Z M 30.421875 11.769531 L 29.695312 14.578125 L 31.558594 14.578125 C 32.289062 14.578125 33.289062 14.214844 33.535156 13.300781 C 33.773438 12.382812 33.078125 11.769531 32.347656 11.769531 "/>
<path style=" stroke:none;fill-rule:nonzero;fill:rgb(0%,65.098041%,70.980394%);fill-opacity:1;" d="M 110.210938 18.769531 C 110.21875 18.738281 110.707031 15.996094 111.292969 12.679688 C 111.878906 9.359375 112.367188 6.613281 112.375 6.570312 L 112.394531 6.496094 L 116.6875 6.496094 L 116.667969 6.585938 C 116.636719 6.746094 116.351562 8.496094 116.351562 8.535156 C 116.351562 8.554688 116.503906 8.429688 116.695312 8.261719 C 117.84375 7.21875 119.023438 6.566406 120.105469 6.382812 C 120.785156 6.265625 121.730469 6.335938 122.359375 6.546875 C 123.238281 6.839844 123.769531 7.265625 124.101562 7.949219 C 124.515625 8.796875 124.558594 9.691406 124.269531 11.339844 C 124.167969 11.910156 122.96875 18.808594 122.96875 18.820312 C 122.96875 18.824219 121.921875 18.828125 120.640625 18.828125 L 118.3125 18.828125 L 118.328125 18.753906 C 118.351562 18.664062 119.199219 14.148438 119.324219 13.464844 C 119.476562 12.632812 119.609375 11.632812 119.609375 11.324219 C 119.609375 10.855469 119.484375 10.488281 119.269531 10.328125 C 119.109375 10.207031 118.835938 10.078125 118.621094 10.019531 C 118.089844 9.882812 117.367188 10.0625 116.941406 10.4375 C 116.617188 10.726562 116.25 11.394531 116.070312 12.03125 C 116.007812 12.25 114.789062 18.703125 114.789062 18.8125 C 114.789062 18.820312 113.753906 18.828125 112.488281 18.828125 C 110.316406 18.828125 110.191406 18.824219 110.210938 18.769531 Z M 110.210938 18.769531 "/>
<path style=" stroke:none;fill-rule:nonzero;fill:rgb(0%,65.098041%,70.980394%);fill-opacity:1;" d="M 81.988281 18.820312 C 81.988281 18.816406 82.480469 16.042969 83.082031 12.660156 L 84.171875 6.511719 L 86.324219 6.503906 C 88.367188 6.496094 88.480469 6.496094 88.464844 6.554688 C 88.417969 6.714844 88.136719 8.507812 88.15625 8.527344 C 88.167969 8.539062 88.253906 8.46875 88.351562 8.378906 C 88.90625 7.835938 89.722656 7.246094 90.398438 6.902344 C 91.183594 6.5 91.851562 6.328125 92.644531 6.328125 C 94.308594 6.328125 95.519531 6.980469 95.980469 8.132812 C 96.296875 8.921875 96.320312 9.808594 96.0625 11.292969 C 95.742188 13.125 94.761719 18.777344 94.761719 18.800781 C 94.761719 18.816406 93.757812 18.828125 92.429688 18.828125 L 90.097656 18.828125 L 90.117188 18.738281 C 90.207031 18.308594 91.09375 13.566406 91.167969 13.113281 C 91.351562 12.027344 91.410156 11.511719 91.394531 11.191406 C 91.363281 10.652344 91.203125 10.375 90.808594 10.175781 C 90.496094 10.015625 90.234375 9.960938 89.886719 9.984375 C 89.066406 10.035156 88.527344 10.449219 88.105469 11.355469 C 87.871094 11.859375 87.789062 12.234375 87.179688 15.527344 C 86.847656 17.304688 86.578125 18.777344 86.578125 18.792969 C 86.578125 18.816406 85.832031 18.828125 84.285156 18.828125 C 83.019531 18.828125 81.988281 18.824219 81.988281 18.820312 Z M 81.988281 18.820312 "/>
<path style=" stroke:none;fill-rule:nonzero;fill:rgb(0%,65.098041%,70.980394%);fill-opacity:1;" d="M 75.941406 18.769531 C 75.949219 18.738281 76.425781 15.976562 77 12.636719 L 78.046875 6.5625 L 82.527344 6.5625 L 82.507812 6.652344 C 82.496094 6.703125 82.03125 9.421875 81.472656 12.695312 C 80.914062 15.96875 80.449219 18.6875 80.4375 18.738281 L 80.417969 18.828125 L 78.171875 18.828125 C 76.050781 18.828125 75.925781 18.824219 75.941406 18.769531 Z M 75.941406 18.769531 "/>
<path style=" stroke:none;fill-rule:nonzero;fill:rgb(0%,65.098041%,70.980394%);fill-opacity:1;" d="M 68.566406 18.789062 C 68.574219 18.746094 68.914062 16.800781 69.316406 14.46875 C 69.71875 12.132812 70.054688 10.179688 70.066406 10.128906 L 70.085938 10.039062 L 68.34375 10.039062 L 68.363281 9.945312 C 68.375 9.894531 68.503906 9.148438 68.648438 8.285156 C 68.796875 7.417969 68.925781 6.671875 68.933594 6.621094 L 68.953125 6.527344 L 70.710938 6.527344 L 70.726562 6.453125 C 70.734375 6.410156 70.757812 6.289062 70.777344 6.175781 C 71.042969 4.753906 71.613281 3.476562 72.289062 2.800781 C 72.839844 2.25 73.714844 1.863281 74.804688 1.691406 C 75.328125 1.609375 76.746094 1.609375 77.429688 1.691406 C 78.042969 1.765625 78.773438 1.882812 78.828125 1.914062 C 78.859375 1.933594 78.753906 2.289062 78.40625 3.339844 L 77.941406 4.738281 L 77.445312 4.730469 C 76.546875 4.710938 76.179688 4.800781 75.867188 5.128906 C 75.605469 5.402344 75.515625 5.644531 75.386719 6.402344 L 75.367188 6.527344 L 76.496094 6.527344 C 77.492188 6.527344 77.628906 6.535156 77.628906 6.578125 C 77.628906 6.621094 77.101562 9.675781 77.046875 9.945312 L 77.027344 10.039062 L 74.71875 10.039062 L 73.910156 14.390625 C 73.464844 16.785156 73.09375 18.769531 73.085938 18.804688 C 73.070312 18.859375 72.933594 18.863281 70.808594 18.863281 L 68.546875 18.863281 L 68.566406 18.785156 Z M 68.566406 18.789062 "/>
<path style=" stroke:none;fill-rule:nonzero;fill:rgb(0%,65.098041%,70.980394%);fill-opacity:1;" d="M 99.054688 19.09375 C 98.265625 19.015625 97.753906 18.828125 97.171875 18.394531 C 96.738281 18.070312 96.445312 17.738281 96.242188 17.332031 C 95.941406 16.722656 95.933594 15.742188 96.230469 14.890625 C 96.628906 13.75 97.613281 12.808594 98.875 12.367188 C 99.410156 12.179688 100.011719 12.042969 101.929688 11.660156 C 104.164062 11.21875 104.667969 11.101562 105.09375 10.9375 C 105.679688 10.707031 105.816406 10.5625 105.8125 10.164062 C 105.8125 9.800781 105.628906 9.519531 105.277344 9.335938 C 104.90625 9.148438 104.132812 9.097656 103.601562 9.230469 C 102.796875 9.429688 102.113281 9.894531 101.859375 10.421875 C 101.769531 10.597656 101.757812 10.609375 101.664062 10.59375 C 101.609375 10.585938 100.640625 10.46875 99.511719 10.332031 C 97.679688 10.117188 97.457031 10.085938 97.457031 10.03125 C 97.457031 10 97.496094 9.867188 97.542969 9.730469 C 97.867188 8.824219 98.519531 8.046875 99.503906 7.386719 C 100.394531 6.792969 101.21875 6.507812 102.546875 6.335938 C 103.105469 6.265625 105.488281 6.257812 106.203125 6.324219 C 107.082031 6.40625 108.140625 6.679688 108.730469 6.976562 C 109.261719 7.246094 109.730469 7.652344 109.917969 8.015625 C 110.199219 8.550781 110.351562 9.34375 110.316406 10.070312 C 110.273438 10.925781 110.164062 11.640625 109.664062 14.332031 C 109.296875 16.308594 109.234375 16.722656 109.207031 17.277344 C 109.1875 17.746094 109.238281 18.164062 109.363281 18.570312 C 109.402344 18.683594 109.429688 18.789062 109.429688 18.804688 C 109.429688 18.816406 108.460938 18.828125 107.273438 18.828125 L 105.113281 18.828125 L 105.046875 18.683594 C 104.960938 18.5 104.882812 18.113281 104.84375 17.683594 C 104.828125 17.503906 104.808594 17.347656 104.796875 17.339844 C 104.789062 17.328125 104.636719 17.441406 104.457031 17.59375 C 103.824219 18.128906 103.296875 18.425781 102.527344 18.679688 C 101.441406 19.042969 100.128906 19.199219 99.054688 19.09375 Z M 102.960938 16.347656 C 103.296875 16.226562 103.761719 15.984375 103.996094 15.808594 C 104.109375 15.722656 104.332031 15.515625 104.488281 15.351562 C 104.824219 14.996094 105.019531 14.632812 105.152344 14.113281 C 105.238281 13.78125 105.351562 13.113281 105.324219 13.085938 C 105.3125 13.074219 104.773438 13.207031 103.226562 13.617188 C 101.726562 14.011719 101 14.429688 100.832031 14.992188 C 100.773438 15.195312 100.765625 15.609375 100.820312 15.792969 C 100.875 15.972656 101.058594 16.175781 101.257812 16.277344 C 101.527344 16.414062 101.777344 16.457031 102.28125 16.441406 C 102.65625 16.433594 102.765625 16.417969 102.960938 16.347656 Z M 102.960938 16.347656 "/>
<path style=" stroke:none;fill-rule:nonzero;fill:rgb(0%,65.098041%,70.980394%);fill-opacity:1;" d="M 143.910156 19.128906 C 142.890625 19.066406 142.023438 18.839844 141.234375 18.425781 C 140.417969 17.996094 139.667969 17.238281 139.261719 16.425781 C 139.035156 15.96875 138.789062 15.097656 138.867188 15.007812 C 138.886719 14.988281 139.640625 14.425781 140.546875 13.765625 C 141.453125 13.101562 142.191406 12.546875 142.1875 12.527344 C 142.183594 12.507812 141.648438 11.992188 141 11.378906 C 140.351562 10.765625 139.789062 10.238281 139.757812 10.203125 C 139.695312 10.144531 139.695312 10.140625 139.820312 9.933594 C 140.566406 8.6875 142.160156 7.414062 143.632812 6.882812 C 146.257812 5.933594 148.933594 6.078125 150.894531 7.265625 C 152.175781 8.039062 152.839844 9.222656 152.976562 10.960938 C 153.027344 11.597656 152.953125 12.492188 152.765625 13.496094 L 152.722656 13.730469 L 148.042969 13.738281 L 143.363281 13.75 L 143.363281 14.085938 C 143.363281 14.558594 143.433594 14.871094 143.628906 15.273438 C 143.761719 15.546875 143.832031 15.648438 143.984375 15.789062 C 144.21875 16 144.636719 16.207031 144.960938 16.277344 C 145.679688 16.429688 146.730469 16.136719 147.234375 15.640625 C 147.351562 15.527344 147.464844 15.402344 147.496094 15.359375 L 147.546875 15.28125 L 149.8125 15.445312 C 151.058594 15.535156 152.085938 15.621094 152.097656 15.628906 C 152.109375 15.640625 151.992188 15.828125 151.839844 16.042969 C 150.53125 17.882812 148.246094 19.03125 145.738281 19.113281 C 144.621094 19.148438 144.328125 19.152344 143.910156 19.128906 Z M 148.332031 11.589844 C 148.371094 11.488281 148.351562 10.6875 148.304688 10.46875 C 148.183594 9.90625 147.824219 9.46875 147.34375 9.304688 C 146.855469 9.136719 146.25 9.136719 145.753906 9.304688 C 144.929688 9.578125 144.1875 10.4375 143.882812 11.46875 L 143.832031 11.644531 L 146.070312 11.644531 C 148.082031 11.644531 148.3125 11.636719 148.332031 11.589844 Z M 148.332031 11.589844 "/>
<path style=" stroke:none;fill-rule:nonzero;fill:rgb(0%,65.098041%,70.980394%);fill-opacity:1;" d="M 130.15625 19.128906 C 129 19.058594 127.851562 18.792969 127.117188 18.421875 C 126.40625 18.0625 125.792969 17.488281 125.28125 16.691406 C 124.863281 16.042969 124.632812 15.234375 124.632812 14.398438 C 124.632812 12.335938 125.179688 10.660156 126.304688 9.253906 C 126.613281 8.867188 127.09375 8.371094 127.390625 8.117188 C 128.757812 6.972656 130.902344 6.261719 132.988281 6.261719 C 134.464844 6.261719 135.90625 6.574219 136.792969 7.085938 C 137.65625 7.585938 138.414062 8.527344 138.738281 9.496094 C 138.910156 10.015625 139.007812 10.714844 138.957031 11.054688 L 138.933594 11.207031 L 134.488281 11.207031 L 134.472656 11 C 134.457031 10.714844 134.351562 10.511719 134.066406 10.214844 C 133.789062 9.917969 133.660156 9.835938 133.265625 9.714844 C 132.996094 9.632812 132.914062 9.625 132.484375 9.625 C 132.066406 9.625 131.957031 9.636719 131.675781 9.714844 C 131.136719 9.859375 130.882812 10 130.539062 10.355469 C 130.121094 10.78125 129.863281 11.246094 129.589844 12.074219 C 129.402344 12.632812 129.324219 13.054688 129.300781 13.613281 C 129.277344 14.160156 129.324219 14.476562 129.484375 14.898438 C 129.8125 15.765625 131.140625 16.160156 132.363281 15.75 C 132.824219 15.597656 133.046875 15.457031 133.402344 15.101562 C 133.742188 14.765625 133.929688 14.496094 134.070312 14.152344 L 134.144531 13.964844 L 136.410156 13.957031 L 138.679688 13.949219 L 138.65625 14.039062 C 138.609375 14.226562 138.363281 14.824219 138.199219 15.140625 C 137.105469 17.285156 135.015625 18.65625 132.257812 19.042969 C 131.933594 19.089844 130.796875 19.171875 130.65625 19.15625 C 130.628906 19.15625 130.402344 19.140625 130.15625 19.128906 Z M 130.15625 19.128906 "/>
</g>
</svg>
