<?xml version="1.0" encoding="UTF-8"?>
<svg width="100%" height="100%" viewBox="0 0 1200 359" version="1.1" xmlns="http://www.w3.org/2000/svg" xmlns:xlink="http://www.w3.org/1999/xlink" xml:space="preserve" xmlns:serif="http://www.serif.com/" style="fill-rule:evenodd;clip-rule:evenodd;stroke-linejoin:round;stroke-miterlimit:2;">
<g id="surface1">
<path style=" stroke:none;fill-rule:nonzero;fill:rgb(0%,37.64706%,68.627453%);fill-opacity:1;" d="M 53.578125 82.800781 C 53.578125 78.457031 53.625 66.835938 53.515625 65.402344 C 53.609375 48.105469 41.0625 35.910156 33.140625 36.863281 C 27.652344 37.335938 23.058594 39.578125 20.589844 46.027344 C 18.304688 52.03125 20.351562 60.027344 27.953125 61.902344 C 36.082031 63.917969 40.832031 65.59375 44.269531 67.957031 C 48.480469 70.855469 51.921875 76.382812 52.007812 82.808594 "/>
<path style=" stroke:none;fill-rule:nonzero;fill:rgb(0%,37.64706%,68.627453%);fill-opacity:1;" d="M 56.820312 109.085938 C 42.484375 109.085938 27.746094 105.550781 13.035156 98.550781 L 12.671875 98.375 L 12.496094 98.003906 C 5.894531 84.035156 2.402344 68.75 2.402344 53.796875 C 2.402344 38.871094 5.75 24.246094 12.359375 10.292969 L 12.539062 9.925781 L 12.910156 9.738281 C 26.527344 3.273438 41.171875 0 56.453125 0 C 70.6875 0 85.886719 3.644531 100.414062 10.558594 L 100.78125 10.726562 L 100.957031 11.101562 C 107.683594 25.335938 111.238281 40.605469 111.238281 55.3125 C 111.238281 69.960938 107.828125 84.597656 101.089844 98.820312 L 100.914062 99.1875 L 100.539062 99.363281 C 87.132812 105.726562 72.015625 109.085938 56.820312 109.085938 M 14.394531 96.632812 C 28.691406 103.378906 42.949219 106.777344 56.820312 106.777344 C 71.53125 106.777344 86.164062 103.558594 99.1875 97.449219 C 105.65625 83.664062 108.9375 69.484375 108.9375 55.3125 C 108.9375 41.082031 105.511719 26.28125 99.042969 12.464844 C 84.949219 5.828125 70.230469 2.304688 56.453125 2.304688 C 41.652344 2.304688 27.472656 5.453125 14.273438 11.660156 C 7.933594 25.183594 4.710938 39.351562 4.710938 53.796875 C 4.710938 68.273438 8.058594 83.082031 14.394531 96.632812 "/>
<path style=" stroke:none;fill-rule:nonzero;fill:rgb(0%,37.64706%,68.627453%);fill-opacity:1;" d="M 50.179688 82.808594 C 50.207031 77.234375 47.101562 72.308594 43.046875 69.660156 C 39.449219 67.316406 34.617188 65.78125 26.820312 63.796875 C 24.410156 63.183594 21.894531 61.8125 21.113281 60.058594 C 19.046875 62.144531 18.671875 66.828125 19.035156 69.570312 C 19.460938 72.738281 23.152344 77.960938 28.71875 78.167969 C 32.113281 78.300781 36.40625 77.4375 38.464844 76.992188 C 42.019531 76.226562 47.648438 78.457031 48.542969 82.800781 "/>
<path style=" stroke:none;fill-rule:nonzero;fill:rgb(0%,37.64706%,68.627453%);fill-opacity:1;" d="M 56.453125 9.90625 C 47.019531 9.90625 38.875 16.140625 38.898438 26.929688 C 38.929688 36.003906 46.207031 40.855469 48.804688 44.324219 C 52.734375 49.554688 54.855469 55.738281 55.074219 65.207031 C 55.25 72.738281 55.238281 80.183594 55.273438 82.820312 L 57.359375 82.820312 C 57.320312 80.058594 57.226562 72.164062 57.339844 64.976562 C 57.476562 55.507812 59.679688 49.554688 63.605469 44.324219 C 66.226562 40.855469 73.496094 36.003906 73.515625 26.929688 C 73.554688 16.140625 65.40625 9.90625 55.980469 9.90625 "/>
<path style=" stroke:none;fill-rule:nonzero;fill:rgb(0%,37.64706%,68.627453%);fill-opacity:1;" d="M 58.84375 82.800781 C 58.84375 78.457031 58.796875 66.835938 58.898438 65.402344 C 58.8125 48.105469 71.34375 35.910156 79.28125 36.863281 C 84.761719 37.335938 89.355469 39.578125 91.828125 46.027344 C 94.117188 52.03125 92.058594 60.027344 84.460938 61.902344 C 76.328125 63.917969 71.582031 65.59375 68.140625 67.957031 C 63.9375 70.855469 60.738281 76.382812 60.636719 82.808594 "/>
<path style=" stroke:none;fill-rule:nonzero;fill:rgb(0%,37.64706%,68.627453%);fill-opacity:1;" d="M 62.238281 82.808594 C 62.207031 77.234375 65.3125 72.308594 69.363281 69.660156 C 72.972656 67.316406 77.808594 65.78125 85.59375 63.796875 C 88.011719 63.183594 90.527344 61.8125 91.296875 60.058594 C 93.367188 62.144531 93.742188 66.828125 93.378906 69.570312 C 92.949219 72.738281 89.261719 77.960938 83.710938 78.167969 C 80.3125 78.300781 75.996094 77.4375 73.941406 76.992188 C 70.40625 76.226562 64.769531 78.457031 63.867188 82.800781 "/>
<path style=" stroke:none;fill-rule:nonzero;fill:rgb(0%,37.64706%,68.627453%);fill-opacity:1;" d="M 65.148438 100.804688 L 63.941406 91.976562 L 66.859375 91.535156 C 67.566406 91.4375 68.429688 91.5625 68.773438 92.007812 C 69.15625 92.46875 69.273438 92.859375 69.347656 93.464844 C 69.457031 94.214844 69.242188 95.09375 68.390625 95.523438 L 68.390625 95.550781 C 69.335938 95.550781 69.914062 96.234375 70.074219 97.386719 C 70.101562 97.628906 70.175781 98.21875 70.101562 98.707031 C 69.90625 99.871094 69.21875 100.246094 68.046875 100.410156 Z M 67.027344 99.21875 C 67.371094 99.175781 67.722656 99.15625 67.996094 98.980469 C 68.417969 98.707031 68.378906 98.117188 68.316406 97.683594 C 68.171875 96.726562 67.921875 96.359375 66.910156 96.507812 L 66.269531 96.609375 L 66.675781 99.269531 Z M 66.414062 95.144531 C 66.800781 95.082031 67.320312 95.035156 67.539062 94.667969 C 67.652344 94.421875 67.804688 94.230469 67.703125 93.683594 C 67.585938 93.039062 67.371094 92.640625 66.550781 92.796875 L 65.792969 92.914062 L 66.09375 95.175781 "/>
<path style=" stroke:none;fill-rule:nonzero;fill:rgb(0%,37.64706%,68.627453%);fill-opacity:1;" d="M 77.773438 95.492188 C 77.789062 95.65625 77.820312 95.839844 77.828125 96.007812 C 78.066406 97.617188 77.773438 98.949219 75.964844 99.3125 C 73.296875 99.832031 72.785156 98.167969 72.316406 95.839844 L 72.066406 94.578125 C 71.695312 92.355469 71.539062 90.671875 74.140625 90.152344 C 75.605469 89.882812 76.578125 90.464844 76.984375 91.929688 C 77.046875 92.148438 77.121094 92.363281 77.152344 92.582031 L 75.558594 92.914062 C 75.367188 92.363281 75.125 91.386719 74.40625 91.46875 C 73.117188 91.625 73.542969 93.226562 73.679688 93.902344 L 74.15625 96.320312 C 74.300781 97.046875 74.585938 98.21875 75.699219 97.992188 C 76.609375 97.8125 76.214844 96.394531 76.132812 95.8125 "/>
<path style=" stroke:none;fill-rule:nonzero;fill:rgb(0%,37.64706%,68.627453%);fill-opacity:1;" d="M 80.332031 98.167969 L 79.78125 89.03125 L 81.925781 88.375 L 86.421875 96.320312 L 84.738281 96.828125 L 83.667969 94.804688 L 81.796875 95.367188 L 82.035156 97.667969 Z M 81.632812 93.898438 L 82.992188 93.503906 L 81.1875 89.808594 "/>
<path style=" stroke:none;fill-rule:nonzero;fill:rgb(0%,37.64706%,68.627453%);fill-opacity:1;" d="M 27.351562 91.261719 C 28.023438 89.105469 28.625 87.523438 31.183594 88.222656 C 32.558594 88.605469 33.402344 89.214844 33.367188 90.808594 C 33.359375 91.167969 33.242188 91.523438 33.167969 91.882812 L 31.570312 91.4375 C 31.785156 90.554688 31.914062 89.859375 30.832031 89.519531 C 29.574219 89.175781 29.273438 90.699219 29.097656 91.355469 L 28.449219 93.753906 C 28.246094 94.460938 27.996094 95.636719 29.097656 95.9375 C 30.011719 96.183594 30.5625 95.289062 30.894531 93.980469 L 29.773438 93.683594 L 30.164062 92.300781 L 32.785156 93.144531 L 31.539062 97.761719 L 30.332031 97.433594 L 30.605469 96.457031 L 30.570312 96.457031 C 30.011719 97.253906 29.335938 97.339844 28.742188 97.222656 C 26.121094 96.515625 26.394531 94.792969 27.019531 92.5 "/>
<path style=" stroke:none;fill-rule:nonzero;fill:rgb(0%,37.64706%,68.627453%);fill-opacity:1;" d="M 37.113281 95.15625 L 36.328125 98.914062 L 34.550781 98.523438 L 36.4375 89.757812 L 39.472656 90.445312 C 41.246094 90.828125 41.785156 91.625 41.53125 93.253906 C 41.390625 94.183594 40.925781 95.195312 39.804688 95.113281 L 39.792969 95.097656 C 40.746094 95.429688 40.824219 95.914062 40.65625 96.738281 C 40.589844 97.089844 40.09375 99.238281 40.433594 99.582031 L 40.445312 99.84375 L 38.605469 99.363281 C 38.53125 98.769531 38.785156 97.703125 38.890625 97.109375 C 38.992188 96.589844 39.160156 95.851562 38.628906 95.574219 C 38.214844 95.351562 38.058594 95.363281 37.589844 95.257812 Z M 37.414062 93.796875 L 38.617188 94.121094 C 39.34375 94.230469 39.742188 93.851562 39.886719 92.96875 C 40.019531 92.164062 39.851562 91.851562 39.199219 91.691406 L 37.917969 91.429688 "/>
<path style=" stroke:none;fill-rule:nonzero;fill:rgb(0%,37.64706%,68.627453%);fill-opacity:1;" d="M 48.515625 91.71875 L 50.273438 91.925781 L 49.519531 98.085938 C 49.15625 100.039062 48.398438 100.898438 46.25 100.628906 C 44.074219 100.351562 43.554688 99.355469 43.6875 97.386719 L 44.449219 91.230469 L 46.21875 91.429688 L 45.457031 97.453125 C 45.382812 98.105469 45.226562 99.074219 46.390625 99.1875 C 47.414062 99.269531 47.652344 98.585938 47.765625 97.734375 "/>
<path style=" stroke:none;fill-rule:nonzero;fill:rgb(0%,37.64706%,68.627453%);fill-opacity:1;" d="M 52.214844 100.964844 L 52.746094 92.148438 L 56.125 92.300781 C 57.722656 92.375 58.140625 93.683594 58.089844 94.929688 C 58.042969 95.6875 57.804688 96.535156 57.144531 96.996094 C 56.609375 97.386719 55.914062 97.480469 55.269531 97.449219 L 54.167969 97.386719 L 53.949219 101.078125 Z M 54.21875 96.039062 L 55.113281 96.089844 C 55.839844 96.121094 56.320312 95.832031 56.382812 94.761719 C 56.421875 93.734375 56.03125 93.558594 55.085938 93.515625 L 54.378906 93.492188 "/>
<path style=" stroke:none;fill-rule:nonzero;fill:rgb(0%,37.64706%,68.627453%);fill-opacity:1;" d="M 290.5 18.425781 L 277.078125 42.855469 C 272.007812 38.726562 265.820312 35.691406 257.921875 35.691406 C 239.234375 35.691406 231.644531 49.652344 231.644531 59.492188 C 231.644531 66.785156 236.414062 77.554688 253.039062 77.554688 C 260.019531 77.554688 269.941406 72.691406 272.796875 70.480469 L 259.519531 98.8125 C 253.183594 100.082031 251.105469 100.867188 245.746094 101.027344 C 215.988281 101.925781 203.960938 83.597656 203.972656 64.875 C 203.992188 40.128906 225.945312 10.023438 262.347656 10.023438 C 264.574219 10.023438 267.300781 10.800781 269.636719 11.660156 L 271.988281 8.632812 "/>
<path style=" stroke:none;fill-rule:nonzero;fill:rgb(0%,37.64706%,68.627453%);fill-opacity:1;" d="M 345.90625 9.40625 L 349.710938 98.179688 L 321.414062 98.179688 L 321.394531 82.957031 L 302.101562 82.957031 L 295.75 98.179688 L 265.0625 98.179688 L 297.144531 34.78125 L 289.910156 34.738281 L 303.652344 9.40625 Z M 321.214844 36.5625 L 310.300781 62.382812 L 321.539062 62.382812 "/>
<path style=" stroke:none;fill-rule:nonzero;fill:rgb(0%,37.64706%,68.627453%);fill-opacity:1;" d="M 186.105469 9.40625 C 200.117188 9.480469 208.039062 17.105469 208.039062 28.121094 C 208.039062 38.269531 199.6875 47.253906 190.519531 51.902344 C 199.957031 55.382812 200.777344 63.917969 200.777344 69.960938 C 200.777344 84.550781 186.164062 98.179688 167.175781 98.179688 L 125.761719 98.179688 L 141.921875 35.671875 L 135.28125 35.628906 L 148.847656 9.40625 C 148.847656 9.40625 174.710938 9.324219 186.105469 9.40625 M 172.359375 45.394531 C 175.257812 45.394531 180.375 44.664062 181.652344 39.039062 C 183.054688 32.933594 178.253906 32.773438 175.949219 32.773438 L 167.714844 32.734375 L 164.84375 45.394531 Z M 160.71875 61.085938 L 156.925781 75.675781 L 166.621094 75.675781 C 170.4375 75.675781 175.632812 73.777344 176.910156 69.03125 C 178.167969 64.269531 174.53125 61.085938 170.730469 61.085938 "/>
<path style=" stroke:none;fill-rule:nonzero;fill:rgb(0%,65.098041%,70.980394%);fill-opacity:1;" d="M 575.917969 97.429688 C 575.96875 97.257812 578.503906 83.035156 581.558594 65.808594 C 584.609375 48.582031 587.144531 34.320312 587.195312 34.101562 L 587.28125 33.710938 L 609.636719 33.710938 L 609.535156 34.1875 C 609.375 35.015625 607.878906 44.085938 607.878906 44.292969 C 607.878906 44.398438 608.679688 43.761719 609.660156 42.871094 C 615.644531 37.460938 621.789062 34.085938 627.425781 33.125 C 630.949219 32.523438 635.863281 32.878906 639.152344 33.976562 C 643.730469 35.496094 646.496094 37.71875 648.222656 41.257812 C 650.375 45.660156 650.601562 50.296875 649.078125 58.871094 C 648.554688 61.8125 642.328125 97.621094 642.328125 97.679688 C 642.328125 97.710938 636.871094 97.730469 630.207031 97.730469 L 618.085938 97.730469 L 618.179688 97.339844 C 618.285156 96.882812 622.707031 73.429688 623.359375 69.882812 C 624.152344 65.5625 624.84375 60.386719 624.84375 58.78125 C 624.835938 56.351562 624.183594 54.445312 623.070312 53.605469 C 622.226562 52.972656 620.820312 52.300781 619.703125 52.015625 C 616.925781 51.289062 613.171875 52.222656 610.957031 54.179688 C 609.253906 55.675781 607.359375 59.140625 606.417969 62.457031 C 606.101562 63.578125 599.742188 97.085938 599.742188 97.640625 C 599.742188 97.691406 594.359375 97.730469 587.785156 97.730469 C 576.480469 97.730469 575.835938 97.71875 575.917969 97.429688 Z M 575.917969 97.429688 "/>
<path style=" stroke:none;fill-rule:nonzero;fill:rgb(0%,65.098041%,70.980394%);fill-opacity:1;" d="M 429.066406 97.683594 C 429.066406 97.667969 431.625 83.277344 434.742188 65.71875 L 440.425781 33.800781 L 451.632812 33.753906 C 462.253906 33.710938 462.835938 33.722656 462.753906 34.011719 C 462.515625 34.859375 461.0625 44.164062 461.15625 44.257812 C 461.21875 44.3125 461.675781 43.96875 462.171875 43.480469 C 465.050781 40.675781 469.316406 37.605469 472.828125 35.816406 C 476.921875 33.730469 480.394531 32.839844 484.503906 32.847656 C 493.183594 32.847656 499.46875 36.242188 501.875 42.207031 C 503.527344 46.316406 503.648438 50.914062 502.296875 58.609375 C 500.625 68.117188 495.53125 97.460938 495.53125 97.578125 C 495.53125 97.667969 490.3125 97.730469 483.402344 97.730469 L 471.269531 97.730469 L 471.371094 97.253906 C 471.832031 95.023438 476.4375 70.421875 476.832031 68.0625 C 477.777344 62.421875 478.089844 59.753906 478.003906 58.085938 C 477.851562 55.300781 477.015625 53.847656 474.957031 52.808594 C 473.320312 51.984375 471.964844 51.699219 470.175781 51.8125 C 465.886719 52.089844 463.089844 54.238281 460.902344 58.9375 C 459.679688 61.5625 459.253906 63.492188 456.070312 80.589844 C 454.355469 89.820312 452.945312 97.453125 452.945312 97.554688 C 452.945312 97.671875 449.054688 97.730469 441.007812 97.730469 C 434.4375 97.730469 429.0625 97.710938 429.066406 97.683594 Z M 429.066406 97.683594 "/>
<path style=" stroke:none;fill-rule:nonzero;fill:rgb(0%,65.098041%,70.980394%);fill-opacity:1;" d="M 397.589844 97.429688 C 397.632812 97.257812 400.117188 82.933594 403.101562 65.589844 L 408.542969 34.054688 L 431.859375 34.054688 L 431.757812 34.539062 C 431.703125 34.800781 429.28125 48.910156 426.375 65.894531 C 423.464844 82.882812 421.042969 96.992188 420.996094 97.253906 L 420.894531 97.730469 L 409.203125 97.730469 C 398.160156 97.730469 397.519531 97.71875 397.589844 97.429688 Z M 397.589844 97.429688 "/>
<path style=" stroke:none;fill-rule:nonzero;fill:rgb(0%,65.098041%,70.980394%);fill-opacity:1;" d="M 359.210938 97.515625 C 359.261719 97.296875 361.019531 87.210938 363.109375 75.085938 C 365.207031 62.972656 366.964844 52.839844 367.015625 52.578125 L 367.113281 52.101562 L 358.058594 52.101562 L 358.160156 51.625 C 358.210938 51.363281 358.878906 47.480469 359.648438 42.992188 C 360.414062 38.507812 361.082031 34.625 361.132812 34.363281 L 361.230469 33.886719 L 370.367188 33.886719 L 370.457031 33.492188 C 370.5 33.28125 370.625 32.636719 370.730469 32.066406 C 372.101562 24.683594 375.066406 18.050781 378.585938 14.53125 C 381.445312 11.675781 386.011719 9.667969 391.671875 8.785156 C 394.410156 8.359375 401.777344 8.351562 405.332031 8.777344 C 408.523438 9.160156 412.332031 9.769531 412.613281 9.941406 C 412.777344 10.042969 412.226562 11.890625 410.414062 17.339844 L 407.996094 24.601562 L 405.414062 24.546875 C 400.738281 24.445312 398.828125 24.925781 397.207031 26.617188 C 395.855469 28.03125 395.382812 29.292969 394.707031 33.234375 L 394.597656 33.886719 L 400.488281 33.886719 C 405.65625 33.886719 406.382812 33.917969 406.382812 34.148438 C 406.382812 34.375 403.621094 50.210938 403.335938 51.625 L 403.242188 52.101562 L 391.238281 52.101562 L 387.027344 74.699219 C 384.710938 87.128906 382.777344 97.433594 382.726562 97.597656 C 382.644531 97.886719 381.9375 97.90625 370.882812 97.90625 L 359.117188 97.90625 L 359.210938 97.511719 Z M 359.210938 97.515625 "/>
<path style=" stroke:none;fill-rule:nonzero;fill:rgb(0%,65.098041%,70.980394%);fill-opacity:1;" d="M 517.871094 99.105469 C 513.773438 98.707031 511.105469 97.722656 508.085938 95.476562 C 505.820312 93.789062 504.304688 92.0625 503.246094 89.953125 C 501.671875 86.804688 501.640625 81.699219 503.171875 77.296875 C 505.238281 71.363281 510.367188 66.472656 516.933594 64.1875 C 519.722656 63.214844 522.851562 62.496094 532.832031 60.523438 C 544.449219 58.230469 547.089844 57.628906 549.3125 56.765625 C 552.347656 55.582031 553.058594 54.820312 553.046875 52.757812 C 553.035156 50.863281 552.082031 49.402344 550.242188 48.464844 C 548.316406 47.480469 544.296875 47.21875 541.527344 47.90625 C 537.347656 48.941406 533.792969 51.371094 532.457031 54.085938 C 532 55.011719 531.945312 55.070312 531.449219 54.988281 C 531.167969 54.9375 526.125 54.332031 520.242188 53.636719 C 510.710938 52.515625 509.554688 52.347656 509.554688 52.078125 C 509.554688 51.914062 509.761719 51.207031 510.003906 50.511719 C 511.695312 45.804688 515.082031 41.769531 520.21875 38.351562 C 524.847656 35.265625 529.140625 33.785156 536.058594 32.898438 C 538.953125 32.523438 551.34375 32.472656 555.082031 32.816406 C 559.648438 33.242188 565.148438 34.664062 568.226562 36.210938 C 571 37.605469 573.421875 39.714844 574.410156 41.609375 C 575.863281 44.386719 576.664062 48.5 576.476562 52.277344 C 576.257812 56.710938 575.6875 60.417969 573.085938 74.398438 C 571.167969 84.65625 570.835938 86.796875 570.710938 89.671875 C 570.605469 92.113281 570.867188 94.277344 571.527344 96.375 C 571.714844 96.976562 571.871094 97.527344 571.871094 97.605469 C 571.871094 97.671875 566.820312 97.730469 560.636719 97.730469 L 549.40625 97.730469 L 549.054688 96.972656 C 548.609375 96.03125 548.203125 94.011719 548.007812 91.789062 C 547.921875 90.847656 547.816406 90.046875 547.765625 89.996094 C 547.714844 89.941406 546.914062 90.542969 545.988281 91.316406 C 542.695312 94.089844 539.941406 95.636719 535.945312 96.960938 C 530.285156 98.832031 523.453125 99.644531 517.871094 99.105469 Z M 538.203125 84.855469 C 539.957031 84.230469 542.371094 82.972656 543.589844 82.050781 C 544.179688 81.613281 545.324219 80.542969 546.144531 79.675781 C 547.902344 77.832031 548.917969 75.953125 549.609375 73.246094 C 550.050781 71.53125 550.632812 68.054688 550.5 67.925781 C 550.425781 67.855469 547.640625 68.558594 539.585938 70.671875 C 531.777344 72.726562 527.996094 74.894531 527.125 77.816406 C 526.8125 78.875 526.78125 81.023438 527.0625 81.96875 C 527.347656 82.902344 528.296875 83.953125 529.335938 84.480469 C 530.75 85.199219 532.046875 85.414062 534.65625 85.34375 C 536.609375 85.300781 537.1875 85.21875 538.203125 84.855469 Z M 538.203125 84.855469 "/>
<path style=" stroke:none;fill-rule:nonzero;fill:rgb(0%,65.098041%,70.980394%);fill-opacity:1;" d="M 751.292969 99.28125 C 745.988281 98.976562 741.476562 97.792969 737.371094 95.636719 C 733.117188 93.402344 729.230469 89.464844 727.109375 85.25 C 725.917969 82.878906 724.65625 78.367188 725.042969 77.898438 C 725.144531 77.785156 729.078125 74.882812 733.796875 71.449219 C 738.515625 68.011719 742.359375 65.121094 742.332031 65.027344 C 742.3125 64.925781 739.53125 62.238281 736.148438 59.058594 C 732.769531 55.871094 729.855469 53.128906 729.679688 52.960938 C 729.359375 52.664062 729.375 52.628906 730.011719 51.558594 C 733.890625 45.101562 742.183594 38.484375 749.859375 35.714844 C 763.507812 30.800781 777.4375 31.539062 787.644531 37.714844 C 794.304688 41.738281 797.769531 47.875 798.472656 56.886719 C 798.734375 60.203125 798.347656 64.851562 797.375 70.058594 L 797.152344 71.273438 L 748.441406 71.363281 L 748.441406 73.101562 C 748.441406 75.558594 748.804688 77.191406 749.828125 79.28125 C 750.523438 80.703125 750.886719 81.222656 751.6875 81.945312 C 752.902344 83.039062 755.066406 84.117188 756.769531 84.480469 C 760.5 85.28125 765.96875 83.753906 768.597656 81.179688 C 769.199219 80.597656 769.796875 79.941406 769.949219 79.722656 L 770.210938 79.320312 L 782.007812 80.171875 C 788.492188 80.640625 793.847656 81.074219 793.902344 81.128906 C 793.964844 81.191406 793.359375 82.152344 792.566406 83.273438 C 785.75 92.828125 773.867188 98.789062 760.820312 99.207031 C 754.984375 99.394531 753.476562 99.40625 751.292969 99.28125 Z M 774.296875 60.152344 C 774.503906 59.632812 774.398438 55.484375 774.152344 54.335938 C 773.539062 51.414062 771.664062 49.144531 769.152344 48.292969 C 766.613281 47.429688 763.464844 47.425781 760.886719 48.289062 C 756.59375 49.714844 752.738281 54.167969 751.148438 59.523438 L 750.882812 60.429688 L 762.539062 60.429688 C 773.007812 60.429688 774.203125 60.40625 774.296875 60.152344 Z M 774.296875 60.152344 "/>
<path style=" stroke:none;fill-rule:nonzero;fill:rgb(0%,65.098041%,70.980394%);fill-opacity:1;" d="M 679.71875 99.277344 C 673.703125 98.929688 667.734375 97.546875 663.917969 95.625 C 660.199219 93.757812 657.019531 90.773438 654.355469 86.640625 C 652.175781 83.265625 650.988281 79.0625 650.988281 74.742188 C 650.980469 64.023438 653.816406 55.328125 659.6875 48.027344 C 661.289062 46.035156 663.777344 43.441406 665.335938 42.140625 C 672.453125 36.191406 683.597656 32.503906 694.46875 32.496094 C 702.144531 32.496094 709.636719 34.113281 714.253906 36.78125 C 718.746094 39.371094 722.703125 44.261719 724.375 49.289062 C 725.269531 51.988281 725.78125 55.613281 725.511719 57.378906 L 725.394531 58.175781 L 702.265625 58.175781 L 702.1875 57.09375 C 702.09375 55.621094 701.550781 54.5625 700.082031 53.007812 C 698.621094 51.476562 697.945312 51.054688 695.898438 50.429688 C 694.511719 50.003906 694.078125 49.953125 691.832031 49.960938 C 689.667969 49.960938 689.089844 50.023438 687.628906 50.417969 C 684.816406 51.175781 683.507812 51.90625 681.707031 53.742188 C 679.535156 55.957031 678.195312 58.375 676.769531 62.664062 C 675.804688 65.5625 675.394531 67.761719 675.273438 70.667969 C 675.15625 73.492188 675.386719 75.136719 676.226562 77.335938 C 677.933594 81.835938 684.835938 83.878906 691.195312 81.757812 C 693.597656 80.953125 694.765625 80.226562 696.605469 78.394531 C 698.378906 76.628906 699.359375 75.230469 700.082031 73.453125 L 700.472656 72.488281 L 712.269531 72.445312 L 724.074219 72.402344 L 723.953125 72.878906 C 723.710938 73.855469 722.433594 76.941406 721.582031 78.589844 C 715.882812 89.722656 705.011719 96.839844 690.664062 98.84375 C 688.972656 99.082031 683.054688 99.5 682.3125 99.4375 C 682.171875 99.425781 681 99.351562 679.71875 99.277344 Z M 679.71875 99.277344 "/>
</g>
</svg>
